<svg width="2982" height="1930" viewBox="0 0 2982 1930" fill="none" xmlns="http://www.w3.org/2000/svg">
<g id="dsmonitor2">
<rect id="Rectangle 19" width="2982" height="1743.23" rx="53" fill="black"/>
<rect id="Rectangle 18" x="68.9351" y="71.1523" width="2846.35" height="1600.92" fill="white"/>
<rect id="Rectangle 20" x="1338.68" y="1743.23" width="306.872" height="124.516" fill="black"/>
<rect id="Rectangle 21" x="976.21" y="1867.74" width="1031.8" height="62.2582" fill="black"/>
<ellipse id="Ellipse 3" cx="2847.47" cy="145.64" rx="45.5861" ry="45.5818" transform="rotate(-180 2847.47 145.64)" fill="#C60D0D"/>
<ellipse id="Ellipse 4" cx="2742.95" cy="145.64" rx="45.5862" ry="45.5818" transform="rotate(-180 2742.95 145.64)" fill="#DFC439"/>
<ellipse id="Ellipse 5" cx="2638.44" cy="145.64" rx="45.5861" ry="45.5818" transform="rotate(-180 2638.44 145.64)" fill="#08A60F"/>
<g id="Rectangle 22" filter="url(#filter0_d)">
<rect x="128.975" y="264.597" width="869.472" height="673.721" fill="#C4C4C4"/>
</g>
<g id="Rectangle 23" filter="url(#filter1_d)">
<rect x="1056.26" y="264.597" width="869.472" height="673.721" fill="#C4C4C4"/>
</g>
<g id="Rectangle 40" filter="url(#filter2_d)">
<rect x="128.975" y="993.905" width="1796.76" height="580.334" fill="#C4C4C4"/>
</g>
<g id="Rectangle 24" filter="url(#filter3_d)">
<rect x="1983.55" y="264.597" width="869.472" height="673.721" fill="#C4C4C4"/>
</g>
<g id="Rectangle 47" filter="url(#filter4_d)">
<rect x="1983.55" y="993.905" width="869.472" height="580.334" fill="#C4C4C4"/>
</g>
<g id="Rectangle 25" filter="url(#filter5_d)">
<rect x="169.002" y="311.29" width="791.642" height="578.111" rx="18" fill="white"/>
</g>
<rect id="Rectangle 67" x="240" y="789.078" width="90.9215" height="8" rx="4" transform="rotate(-67.2922 240 789.078)" fill="#1C24F0"/>
<rect id="Rectangle 78" x="243" y="780.473" width="90.9215" height="8" rx="4" transform="rotate(-36.807 243 780.473)" fill="#F51414"/>
<rect id="Rectangle 88" x="241" y="787.561" width="90.9215" height="8" rx="4" transform="rotate(-52.9444 241 787.561)" fill="#0AD837"/>
<rect id="Rectangle 89" x="294.161" y="716" width="90.9215" height="8" rx="4" transform="rotate(1.14964 294.161 716)" fill="#0AD837"/>
<rect id="Rectangle 90" x="376" y="723.072" width="90.9215" height="8" rx="4" transform="rotate(-73.2688 376 723.072)" fill="#0AD837"/>
<rect id="Rectangle 91" x="401" y="639.581" width="90.9215" height="8" rx="4" transform="rotate(-36.8924 401 639.581)" fill="#0AD837"/>
<rect id="Rectangle 92" x="473.755" y="586" width="90.9215" height="8" rx="4" transform="rotate(36.4672 473.755 586)" fill="#0AD837"/>
<rect id="Rectangle 93" x="538" y="638.268" width="90.9215" height="8" rx="4" transform="rotate(-33.5637 538 638.268)" fill="#0AD837"/>
<rect id="Rectangle 94" x="611.849" y="588" width="90.9215" height="8" rx="4" transform="rotate(28.7591 611.849 588)" fill="#0AD837"/>
<rect id="Rectangle 95" x="683" y="631.086" width="90.9215" height="8" rx="4" transform="rotate(-22.6993 683 631.086)" fill="#0AD837"/>
<rect id="Rectangle 96" x="765.389" y="595" width="90.9215" height="8" rx="4" transform="rotate(52.9947 765.389 595)" fill="#0AD837"/>
<rect id="Rectangle 97" x="810" y="668.902" width="90.9215" height="8" rx="4" transform="rotate(-55.4679 810 668.902)" fill="#0AD837"/>
<rect id="Rectangle 79" x="312.255" y="727" width="90.9215" height="8" rx="4" transform="rotate(9.02636 312.255 727)" fill="#F51414"/>
<rect id="Rectangle 80" x="393" y="745.25" width="90.9215" height="8" rx="4" transform="rotate(-58.1714 393 745.25)" fill="#F51414"/>
<rect id="Rectangle 81" x="440.939" y="668" width="90.9215" height="8" rx="4" transform="rotate(29.499 440.939 668)" fill="#F51414"/>
<rect id="Rectangle 82" x="511" y="711.075" width="90.9215" height="8" rx="4" transform="rotate(-14.7021 511 711.075)" fill="#F51414"/>
<rect id="Rectangle 83" x="593" y="695.216" width="90.9215" height="8" rx="4" transform="rotate(-73.5861 593 695.216)" fill="#F51414"/>
<rect id="Rectangle 84" x="616" y="613.051" width="90.9215" height="8" rx="4" transform="rotate(-53.4606 616 613.051)" fill="#F51414"/>
<rect id="Rectangle 85" x="668" y="541.439" width="90.9215" height="8" rx="4" transform="rotate(-7.86374 668 541.439)" fill="#F51414"/>
<rect id="Rectangle 86" x="750" y="534.103" width="90.9215" height="8" rx="4" transform="rotate(-59.2056 750 534.103)" fill="#F51414"/>
<rect id="Rectangle 87" x="794" y="458.853" width="90.9215" height="8" rx="4" transform="rotate(-17.8384 794 458.853)" fill="#F51414"/>
<rect id="Rectangle 68" x="274" y="706.313" width="90.9215" height="8" rx="4" transform="rotate(-5.87931 274 706.313)" fill="#1C24F0"/>
<rect id="Rectangle 69" x="356" y="702.502" width="90.9215" height="8" rx="4" transform="rotate(-59.7009 356 702.502)" fill="#1C24F0"/>
<rect id="Rectangle 70" x="399.99" y="625" width="90.9215" height="8" rx="4" transform="rotate(7.1078 399.99 625)" fill="#1C24F0"/>
<rect id="Rectangle 71" x="482" y="642.02" width="90.9215" height="8" rx="4" transform="rotate(-75.4846 482 642.02)" fill="#1C24F0"/>
<rect id="Rectangle 72" x="505.505" y="554" width="90.9215" height="8" rx="4" transform="rotate(10.8446 505.505 554)" fill="#1C24F0"/>
<rect id="Rectangle 73" x="588" y="576.219" width="90.9215" height="8" rx="4" transform="rotate(-66.2463 588 576.219)" fill="#1C24F0"/>
<rect id="Rectangle 74" x="625.231" y="493" width="90.9215" height="8" rx="4" transform="rotate(16.1931 625.231 493)" fill="#1C24F0"/>
<rect id="Rectangle 75" x="707.931" y="516" width="90.9215" height="8" rx="4" transform="rotate(47.8465 707.931 516)" fill="#1C24F0"/>
<rect id="Rectangle 76" x="758" y="583.699" width="90.9215" height="8" rx="4" transform="rotate(-50.0487 758 583.699)" fill="#1C24F0"/>
<rect id="Rectangle 77" x="812" y="521.93" width="90.9215" height="8" rx="4" transform="rotate(-75.2617 812 521.93)" fill="#1C24F0"/>
<g id="Rectangle 26" filter="url(#filter6_d)">
<rect x="1096.29" y="311.29" width="791.642" height="578.111" rx="18" fill="white"/>
</g>
<g id="Rectangle 27" filter="url(#filter7_d)">
<rect x="2023.58" y="311.29" width="791.642" height="578.111" rx="18" fill="white"/>
</g>
<g id="Rectangle 48" filter="url(#filter8_d)">
<rect x="2023.58" y="1036.15" width="791.642" height="495.841" rx="18" fill="white"/>
</g>
<rect id="Rectangle 34" x="2161.45" y="422.466" width="95.6196" height="362.431" fill="#EA1414"/>
<rect id="Rectangle 35" x="2303.77" y="638.146" width="95.6201" height="146.751" fill="#3367EE"/>
<rect id="Rectangle 36" x="2446.08" y="491.395" width="95.6196" height="293.502" fill="#21B854"/>
<rect id="Rectangle 37" x="2588.4" y="578.11" width="95.6194" height="206.786" fill="#EDE64B"/>
<rect id="Rectangle 28" x="229.042" y="780.449" width="676.009" height="17.788" fill="black"/>
<path id="Vector 2" d="M1575.5 504.735C1544.37 445.812 1520.09 423.83 1492.11 420.242V788.232H1806.77L1756.73 770.444L1694.47 739.315C1654.44 720.415 1606.63 563.658 1575.5 504.735Z" fill="#1B3CEA" stroke="black"/>
<path id="Vector 1" d="M1409.83 504.735C1440.97 445.812 1465.25 423.83 1493.22 420.242V788.232H1178.57L1228.6 770.444L1290.87 739.315C1330.89 720.415 1378.7 563.658 1409.83 504.735Z" fill="#1B3CEA" stroke="black"/>
<rect id="Rectangle 38" x="1154.11" y="780.449" width="676.009" height="17.788" fill="black"/>
<rect id="Rectangle 32" x="2081.4" y="780.449" width="676.009" height="17.788" fill="black"/>
<rect id="Rectangle 29" x="229.042" y="798.237" width="418.019" height="17.7897" transform="rotate(-90 229.042 798.237)" fill="black"/>
<rect id="Rectangle 33" x="2081.4" y="798.237" width="418.019" height="17.7898" transform="rotate(-90 2081.4 798.237)" fill="black"/>
<rect id="Rectangle 39" x="1483.22" y="798.237" width="418.019" height="17.7897" transform="rotate(-90 1483.22 798.237)" fill="black"/>
<rect id="Rectangle 41" x="237.937" y="1067.28" width="1487.66" height="51.1405" rx="25.5703" fill="white"/>
<rect id="Rectangle 42" x="237.937" y="1149.55" width="691.575" height="51.1406" rx="25.5703" fill="white"/>
<rect id="Rectangle 43" x="237.937" y="1231.82" width="940.631" height="51.1405" rx="25.5703" fill="white"/>
<rect id="Rectangle 44" x="237.937" y="1314.09" width="876.143" height="51.1404" rx="25.5702" fill="white"/>
<rect id="Rectangle 45" x="237.937" y="1396.36" width="1131.87" height="51.1406" rx="25.5703" fill="white"/>
<rect id="Rectangle 46" x="237.937" y="1476.41" width="1234.16" height="51.1405" rx="25.5703" fill="white"/>
<rect id="Rectangle 50" x="2337.12" y="1111.75" width="75.6062" height="75.5991" fill="#D90505"/>
<rect id="Rectangle 51" x="2426.07" y="1111.75" width="75.606" height="75.5991" fill="#FF0000"/>
<rect id="Rectangle 52" x="2515.02" y="1111.75" width="75.6064" height="75.5991" fill="#9F0A0A"/>
<rect id="Rectangle 53" x="2515.02" y="1200.69" width="75.6064" height="75.5991" fill="#D60808"/>
<rect id="Rectangle 60" x="2512.8" y="1289.63" width="75.6064" height="75.599" fill="#1DAB06"/>
<rect id="Rectangle 54" x="2426.07" y="1200.69" width="75.606" height="75.5991" fill="#30F510"/>
<rect id="Rectangle 64" x="2426.07" y="1378.57" width="75.606" height="75.5991" fill="#AF0C0C"/>
<rect id="Rectangle 58" x="2337.12" y="1289.63" width="75.6062" height="75.599" fill="#22950F"/>
<rect id="Rectangle 65" x="2337.12" y="1378.57" width="75.6062" height="75.5991" fill="#29F707"/>
<rect id="Rectangle 56" x="2248.17" y="1200.69" width="75.6062" height="75.5991" fill="#FF0000"/>
<rect id="Rectangle 57" x="2248.17" y="1289.63" width="75.6062" height="75.599" fill="#26B60E"/>
<rect id="Rectangle 66" x="2248.17" y="1378.57" width="75.6062" height="75.5991" fill="#FF0000"/>
</g>
<defs>
<filter id="filter0_d" x="124.975" y="264.597" width="877.472" height="681.721" filterUnits="userSpaceOnUse" color-interpolation-filters="sRGB">
<feFlood flood-opacity="0" result="BackgroundImageFix"/>
<feColorMatrix in="SourceAlpha" type="matrix" values="0 0 0 0 0 0 0 0 0 0 0 0 0 0 0 0 0 0 127 0"/>
<feOffset dy="4"/>
<feGaussianBlur stdDeviation="2"/>
<feColorMatrix type="matrix" values="0 0 0 0 0 0 0 0 0 0 0 0 0 0 0 0 0 0 0.25 0"/>
<feBlend mode="normal" in2="BackgroundImageFix" result="effect1_dropShadow"/>
<feBlend mode="normal" in="SourceGraphic" in2="effect1_dropShadow" result="shape"/>
</filter>
<filter id="filter1_d" x="1052.26" y="264.597" width="877.472" height="681.721" filterUnits="userSpaceOnUse" color-interpolation-filters="sRGB">
<feFlood flood-opacity="0" result="BackgroundImageFix"/>
<feColorMatrix in="SourceAlpha" type="matrix" values="0 0 0 0 0 0 0 0 0 0 0 0 0 0 0 0 0 0 127 0"/>
<feOffset dy="4"/>
<feGaussianBlur stdDeviation="2"/>
<feColorMatrix type="matrix" values="0 0 0 0 0 0 0 0 0 0 0 0 0 0 0 0 0 0 0.25 0"/>
<feBlend mode="normal" in2="BackgroundImageFix" result="effect1_dropShadow"/>
<feBlend mode="normal" in="SourceGraphic" in2="effect1_dropShadow" result="shape"/>
</filter>
<filter id="filter2_d" x="124.975" y="993.905" width="1804.76" height="588.334" filterUnits="userSpaceOnUse" color-interpolation-filters="sRGB">
<feFlood flood-opacity="0" result="BackgroundImageFix"/>
<feColorMatrix in="SourceAlpha" type="matrix" values="0 0 0 0 0 0 0 0 0 0 0 0 0 0 0 0 0 0 127 0"/>
<feOffset dy="4"/>
<feGaussianBlur stdDeviation="2"/>
<feColorMatrix type="matrix" values="0 0 0 0 0 0 0 0 0 0 0 0 0 0 0 0 0 0 0.25 0"/>
<feBlend mode="normal" in2="BackgroundImageFix" result="effect1_dropShadow"/>
<feBlend mode="normal" in="SourceGraphic" in2="effect1_dropShadow" result="shape"/>
</filter>
<filter id="filter3_d" x="1979.55" y="264.597" width="877.472" height="681.721" filterUnits="userSpaceOnUse" color-interpolation-filters="sRGB">
<feFlood flood-opacity="0" result="BackgroundImageFix"/>
<feColorMatrix in="SourceAlpha" type="matrix" values="0 0 0 0 0 0 0 0 0 0 0 0 0 0 0 0 0 0 127 0"/>
<feOffset dy="4"/>
<feGaussianBlur stdDeviation="2"/>
<feColorMatrix type="matrix" values="0 0 0 0 0 0 0 0 0 0 0 0 0 0 0 0 0 0 0.25 0"/>
<feBlend mode="normal" in2="BackgroundImageFix" result="effect1_dropShadow"/>
<feBlend mode="normal" in="SourceGraphic" in2="effect1_dropShadow" result="shape"/>
</filter>
<filter id="filter4_d" x="1979.55" y="993.905" width="877.472" height="588.334" filterUnits="userSpaceOnUse" color-interpolation-filters="sRGB">
<feFlood flood-opacity="0" result="BackgroundImageFix"/>
<feColorMatrix in="SourceAlpha" type="matrix" values="0 0 0 0 0 0 0 0 0 0 0 0 0 0 0 0 0 0 127 0"/>
<feOffset dy="4"/>
<feGaussianBlur stdDeviation="2"/>
<feColorMatrix type="matrix" values="0 0 0 0 0 0 0 0 0 0 0 0 0 0 0 0 0 0 0.25 0"/>
<feBlend mode="normal" in2="BackgroundImageFix" result="effect1_dropShadow"/>
<feBlend mode="normal" in="SourceGraphic" in2="effect1_dropShadow" result="shape"/>
</filter>
<filter id="filter5_d" x="165.002" y="311.29" width="799.642" height="586.111" filterUnits="userSpaceOnUse" color-interpolation-filters="sRGB">
<feFlood flood-opacity="0" result="BackgroundImageFix"/>
<feColorMatrix in="SourceAlpha" type="matrix" values="0 0 0 0 0 0 0 0 0 0 0 0 0 0 0 0 0 0 127 0"/>
<feOffset dy="4"/>
<feGaussianBlur stdDeviation="2"/>
<feColorMatrix type="matrix" values="0 0 0 0 0 0 0 0 0 0 0 0 0 0 0 0 0 0 0.25 0"/>
<feBlend mode="normal" in2="BackgroundImageFix" result="effect1_dropShadow"/>
<feBlend mode="normal" in="SourceGraphic" in2="effect1_dropShadow" result="shape"/>
</filter>
<filter id="filter6_d" x="1092.29" y="311.29" width="799.642" height="586.111" filterUnits="userSpaceOnUse" color-interpolation-filters="sRGB">
<feFlood flood-opacity="0" result="BackgroundImageFix"/>
<feColorMatrix in="SourceAlpha" type="matrix" values="0 0 0 0 0 0 0 0 0 0 0 0 0 0 0 0 0 0 127 0"/>
<feOffset dy="4"/>
<feGaussianBlur stdDeviation="2"/>
<feColorMatrix type="matrix" values="0 0 0 0 0 0 0 0 0 0 0 0 0 0 0 0 0 0 0.25 0"/>
<feBlend mode="normal" in2="BackgroundImageFix" result="effect1_dropShadow"/>
<feBlend mode="normal" in="SourceGraphic" in2="effect1_dropShadow" result="shape"/>
</filter>
<filter id="filter7_d" x="2019.58" y="311.29" width="799.642" height="586.111" filterUnits="userSpaceOnUse" color-interpolation-filters="sRGB">
<feFlood flood-opacity="0" result="BackgroundImageFix"/>
<feColorMatrix in="SourceAlpha" type="matrix" values="0 0 0 0 0 0 0 0 0 0 0 0 0 0 0 0 0 0 127 0"/>
<feOffset dy="4"/>
<feGaussianBlur stdDeviation="2"/>
<feColorMatrix type="matrix" values="0 0 0 0 0 0 0 0 0 0 0 0 0 0 0 0 0 0 0.25 0"/>
<feBlend mode="normal" in2="BackgroundImageFix" result="effect1_dropShadow"/>
<feBlend mode="normal" in="SourceGraphic" in2="effect1_dropShadow" result="shape"/>
</filter>
<filter id="filter8_d" x="2019.58" y="1036.15" width="799.642" height="503.841" filterUnits="userSpaceOnUse" color-interpolation-filters="sRGB">
<feFlood flood-opacity="0" result="BackgroundImageFix"/>
<feColorMatrix in="SourceAlpha" type="matrix" values="0 0 0 0 0 0 0 0 0 0 0 0 0 0 0 0 0 0 127 0"/>
<feOffset dy="4"/>
<feGaussianBlur stdDeviation="2"/>
<feColorMatrix type="matrix" values="0 0 0 0 0 0 0 0 0 0 0 0 0 0 0 0 0 0 0.25 0"/>
<feBlend mode="normal" in2="BackgroundImageFix" result="effect1_dropShadow"/>
<feBlend mode="normal" in="SourceGraphic" in2="effect1_dropShadow" result="shape"/>
</filter>
</defs>
</svg>
