<svg width="2513" height="974" viewBox="0 0 2513 974" fill="none" xmlns="http://www.w3.org/2000/svg">
<g id="operatorsbg">
<g id="operators">
<g id="subtraction">
<rect id="Rectangle 10" width="17" height="106" rx="8.5" transform="matrix(-3.16923e-08 -1 -1 6.02887e-08 561 936)" fill="white"/>
</g>
<g id="addition">
<rect id="Rectangle 8" width="17.037" height="92" rx="8.51852" transform="matrix(-3.17162e-08 -1 -1 6.02433e-08 402 936.519)" fill="white"/>
<rect id="Rectangle 9" width="17.037" height="92" rx="8.51852" transform="matrix(-1 8.74228e-08 1.1595e-07 1 364.518 882)" fill="white"/>
</g>
<g id="multiplication">
<rect id="Rectangle 11" width="17.0124" height="91.8671" rx="8.50621" transform="matrix(-0.706776 -0.707438 -0.706776 0.707438 690.953 901.035)" fill="white"/>
<rect id="Rectangle 12" width="17.0124" height="91.8671" rx="8.50621" transform="matrix(-0.706776 0.707438 0.706776 0.707438 626.071 889.975)" fill="white"/>
</g>
<g id="division">
<rect id="Rectangle 13" width="17.0455" height="106" rx="8.52273" transform="matrix(-3.16077e-08 -1 -1 6.04499e-08 850 937.023)" fill="white"/>
<ellipse id="Ellipse 1" rx="8.15385" ry="8.18182" transform="matrix(1 0 0 -1 797 957.818)" fill="white"/>
<ellipse id="Ellipse 2" rx="8.15385" ry="8.18182" transform="matrix(1 0 0 -1 797 899.182)" fill="white"/>
</g>
</g>
<g id="operators_2">
<g id="subtraction_2">
<rect id="Rectangle 10_2" width="17" height="106" rx="8.5" transform="matrix(-3.16923e-08 -1 -1 6.02887e-08 566 558)" fill="white"/>
</g>
<g id="addition_2">
<rect id="Rectangle 8_2" width="17.037" height="92" rx="8.51852" transform="matrix(-3.17162e-08 -1 -1 6.02433e-08 407 558.519)" fill="white"/>
<rect id="Rectangle 9_2" width="17.037" height="92" rx="8.51852" transform="matrix(-1 8.74228e-08 1.1595e-07 1 369.518 504)" fill="white"/>
</g>
<g id="multiplication_2">
<rect id="Rectangle 11_2" width="17.0124" height="91.8671" rx="8.50621" transform="matrix(-0.706776 -0.707438 -0.706776 0.707438 695.953 523.035)" fill="white"/>
<rect id="Rectangle 12_2" width="17.0124" height="91.8671" rx="8.50621" transform="matrix(-0.706776 0.707438 0.706776 0.707438 631.07 511.975)" fill="white"/>
</g>
<g id="division_2">
<rect id="Rectangle 13_2" width="17.0455" height="106" rx="8.52273" transform="matrix(-3.16077e-08 -1 -1 6.04499e-08 855 559.023)" fill="white"/>
<ellipse id="Ellipse 1_2" rx="8.15385" ry="8.18182" transform="matrix(1 0 0 -1 802 579.818)" fill="white"/>
<ellipse id="Ellipse 2_2" rx="8.15385" ry="8.18182" transform="matrix(1 0 0 -1 802 521.182)" fill="white"/>
</g>
</g>
<g id="operators_3">
<g id="subtraction_3">
<rect id="Rectangle 10_3" width="17" height="106" rx="8.5" transform="matrix(-3.16923e-08 -1 -1 6.02887e-08 571 180)" fill="white"/>
</g>
<g id="addition_3">
<rect id="Rectangle 8_3" width="17.037" height="92" rx="8.51852" transform="matrix(-3.17162e-08 -1 -1 6.02433e-08 412 180.519)" fill="white"/>
<rect id="Rectangle 9_3" width="17.037" height="92" rx="8.51852" transform="matrix(-1 8.74228e-08 1.1595e-07 1 374.518 126)" fill="white"/>
</g>
<g id="multiplication_3">
<rect id="Rectangle 11_3" width="17.0124" height="91.8671" rx="8.50621" transform="matrix(-0.706776 -0.707438 -0.706776 0.707438 700.953 145.035)" fill="white"/>
<rect id="Rectangle 12_3" width="17.0124" height="91.8671" rx="8.50621" transform="matrix(-0.706776 0.707438 0.706776 0.707438 636.071 133.975)" fill="white"/>
</g>
<g id="division_3">
<rect id="Rectangle 13_3" width="17.0455" height="106" rx="8.52273" transform="matrix(-3.16077e-08 -1 -1 6.04499e-08 860 181.023)" fill="white"/>
<ellipse id="Ellipse 1_3" rx="8.15385" ry="8.18182" transform="matrix(1 0 0 -1 807 201.818)" fill="white"/>
<ellipse id="Ellipse 2_3" rx="8.15385" ry="8.18182" transform="matrix(1 0 0 -1 807 143.182)" fill="white"/>
</g>
</g>
<g id="operators_4">
<g id="equals">
<rect id="Rectangle 6" width="17.2297" height="106" rx="8.61487" transform="matrix(-3.12697e-08 -1 -1 6.11034e-08 1013 919.229)" fill="white"/>
<rect id="Rectangle 7" width="17.2297" height="106" rx="8.61487" transform="matrix(-3.12697e-08 -1 -1 6.11034e-08 1013 953)" fill="white"/>
</g>
<g id="subtraction_4">
<rect id="Rectangle 10_4" width="17" height="106" rx="8.5" transform="matrix(-3.16923e-08 -1 -1 6.02887e-08 1317 936)" fill="white"/>
</g>
<g id="addition_4">
<rect id="Rectangle 8_4" width="17.037" height="92" rx="8.51852" transform="matrix(-3.17162e-08 -1 -1 6.02433e-08 1158 936.519)" fill="white"/>
<rect id="Rectangle 9_4" width="17.037" height="92" rx="8.51852" transform="matrix(-1 8.74228e-08 1.1595e-07 1 1120.52 882)" fill="white"/>
</g>
<g id="multiplication_4">
<rect id="Rectangle 11_4" width="17.0124" height="91.8671" rx="8.50621" transform="matrix(-0.706776 -0.707438 -0.706776 0.707438 1446.95 901.035)" fill="white"/>
<rect id="Rectangle 12_4" width="17.0124" height="91.8671" rx="8.50621" transform="matrix(-0.706776 0.707438 0.706776 0.707438 1382.07 889.975)" fill="white"/>
</g>
<g id="division_4">
<rect id="Rectangle 13_4" width="17.0455" height="106" rx="8.52273" transform="matrix(-3.16077e-08 -1 -1 6.04499e-08 1606 937.023)" fill="white"/>
<ellipse id="Ellipse 1_4" rx="8.15385" ry="8.18182" transform="matrix(1 0 0 -1 1553 957.818)" fill="white"/>
<ellipse id="Ellipse 2_4" rx="8.15385" ry="8.18182" transform="matrix(1 0 0 -1 1553 899.182)" fill="white"/>
</g>
</g>
<g id="operators_5">
<g id="equals_2">
<rect id="Rectangle 6_2" width="17.2297" height="106" rx="8.61487" transform="matrix(-3.12697e-08 -1 -1 6.11034e-08 1018 541.229)" fill="white"/>
<rect id="Rectangle 7_2" width="17.2297" height="106" rx="8.61487" transform="matrix(-3.12697e-08 -1 -1 6.11034e-08 1018 575)" fill="white"/>
</g>
<g id="subtraction_5">
<rect id="Rectangle 10_5" width="17" height="106" rx="8.5" transform="matrix(-3.16923e-08 -1 -1 6.02887e-08 1322 558)" fill="white"/>
</g>
<g id="addition_5">
<rect id="Rectangle 8_5" width="17.037" height="92" rx="8.51852" transform="matrix(-3.17162e-08 -1 -1 6.02433e-08 1163 558.519)" fill="white"/>
<rect id="Rectangle 9_5" width="17.037" height="92" rx="8.51852" transform="matrix(-1 8.74228e-08 1.1595e-07 1 1125.52 504)" fill="white"/>
</g>
<g id="multiplication_5">
<rect id="Rectangle 11_5" width="17.0124" height="91.8671" rx="8.50621" transform="matrix(-0.706776 -0.707438 -0.706776 0.707438 1451.95 523.035)" fill="white"/>
<rect id="Rectangle 12_5" width="17.0124" height="91.8671" rx="8.50621" transform="matrix(-0.706776 0.707438 0.706776 0.707438 1387.07 511.975)" fill="white"/>
</g>
<g id="division_5">
<rect id="Rectangle 13_5" width="17.0455" height="106" rx="8.52273" transform="matrix(-3.16077e-08 -1 -1 6.04499e-08 1611 559.023)" fill="white"/>
<ellipse id="Ellipse 1_5" rx="8.15385" ry="8.18182" transform="matrix(1 0 0 -1 1558 579.818)" fill="white"/>
<ellipse id="Ellipse 2_5" rx="8.15385" ry="8.18182" transform="matrix(1 0 0 -1 1558 521.182)" fill="white"/>
</g>
</g>
<g id="operators_6">
<g id="equals_3">
<rect id="Rectangle 6_3" width="17.2297" height="106" rx="8.61487" transform="matrix(-3.12697e-08 -1 -1 6.11034e-08 1023 163.229)" fill="white"/>
<rect id="Rectangle 7_3" width="17.2297" height="106" rx="8.61487" transform="matrix(-3.12697e-08 -1 -1 6.11034e-08 1023 197)" fill="white"/>
</g>
<g id="subtraction_6">
<rect id="Rectangle 10_6" width="17" height="106" rx="8.5" transform="matrix(-3.16923e-08 -1 -1 6.02887e-08 1327 180)" fill="white"/>
</g>
<g id="addition_6">
<rect id="Rectangle 8_6" width="17.037" height="92" rx="8.51852" transform="matrix(-3.17162e-08 -1 -1 6.02433e-08 1168 180.519)" fill="white"/>
<rect id="Rectangle 9_6" width="17.037" height="92" rx="8.51852" transform="matrix(-1 8.74228e-08 1.1595e-07 1 1130.52 126)" fill="white"/>
</g>
<g id="multiplication_6">
<rect id="Rectangle 11_6" width="17.0124" height="91.8671" rx="8.50621" transform="matrix(-0.706776 -0.707438 -0.706776 0.707438 1456.95 145.035)" fill="white"/>
<rect id="Rectangle 12_6" width="17.0124" height="91.8671" rx="8.50621" transform="matrix(-0.706776 0.707438 0.706776 0.707438 1392.07 133.975)" fill="white"/>
</g>
<g id="division_6">
<rect id="Rectangle 13_6" width="17.0455" height="106" rx="8.52273" transform="matrix(-3.16077e-08 -1 -1 6.04499e-08 1616 181.023)" fill="white"/>
<ellipse id="Ellipse 1_6" rx="8.15385" ry="8.18182" transform="matrix(1 0 0 -1 1563 201.818)" fill="white"/>
<ellipse id="Ellipse 2_6" rx="8.15385" ry="8.18182" transform="matrix(1 0 0 -1 1563 143.182)" fill="white"/>
</g>
</g>
<g id="operators_7">
<g id="equals_4">
<rect id="Rectangle 6_4" width="17.2297" height="106" rx="8.61487" transform="matrix(-3.12697e-08 -1 -1 6.11034e-08 1769 919.229)" fill="white"/>
<rect id="Rectangle 7_4" width="17.2297" height="106" rx="8.61487" transform="matrix(-3.12697e-08 -1 -1 6.11034e-08 1769 953)" fill="white"/>
</g>
<g id="subtraction_7">
<rect id="Rectangle 10_7" width="17" height="106" rx="8.5" transform="matrix(-3.16923e-08 -1 -1 6.02887e-08 2073 936)" fill="white"/>
</g>
<g id="addition_7">
<rect id="Rectangle 8_7" width="17.037" height="92" rx="8.51852" transform="matrix(-3.17162e-08 -1 -1 6.02433e-08 1914 936.519)" fill="white"/>
<rect id="Rectangle 9_7" width="17.037" height="92" rx="8.51852" transform="matrix(-1 8.74228e-08 1.1595e-07 1 1876.52 882)" fill="white"/>
</g>
<g id="multiplication_7">
<rect id="Rectangle 11_7" width="17.0124" height="91.8671" rx="8.50621" transform="matrix(-0.706776 -0.707438 -0.706776 0.707438 2202.95 901.035)" fill="white"/>
<rect id="Rectangle 12_7" width="17.0124" height="91.8671" rx="8.50621" transform="matrix(-0.706776 0.707438 0.706776 0.707438 2138.07 889.975)" fill="white"/>
</g>
</g>
<g id="operators_8">
<g id="equals_5">
<rect id="Rectangle 6_5" width="17.2297" height="106" rx="8.61487" transform="matrix(-3.12697e-08 -1 -1 6.11034e-08 1774 541.229)" fill="white"/>
<rect id="Rectangle 7_5" width="17.2297" height="106" rx="8.61487" transform="matrix(-3.12697e-08 -1 -1 6.11034e-08 1774 575)" fill="white"/>
</g>
<g id="subtraction_8">
<rect id="Rectangle 10_8" width="17" height="106" rx="8.5" transform="matrix(-3.16923e-08 -1 -1 6.02887e-08 2078 558)" fill="white"/>
</g>
<g id="addition_8">
<rect id="Rectangle 8_8" width="17.037" height="92" rx="8.51852" transform="matrix(-3.17162e-08 -1 -1 6.02433e-08 1919 558.519)" fill="white"/>
<rect id="Rectangle 9_8" width="17.037" height="92" rx="8.51852" transform="matrix(-1 8.74228e-08 1.1595e-07 1 1881.52 504)" fill="white"/>
</g>
<g id="multiplication_8">
<rect id="Rectangle 11_8" width="17.0124" height="91.8671" rx="8.50621" transform="matrix(-0.706776 -0.707438 -0.706776 0.707438 2207.95 523.035)" fill="white"/>
<rect id="Rectangle 12_8" width="17.0124" height="91.8671" rx="8.50621" transform="matrix(-0.706776 0.707438 0.706776 0.707438 2143.07 511.975)" fill="white"/>
</g>
</g>
<g id="operators_9">
<g id="equals_6">
<rect id="Rectangle 6_6" width="17.2297" height="106" rx="8.61487" transform="matrix(-3.12697e-08 -1 -1 6.11034e-08 1779 163.229)" fill="white"/>
<rect id="Rectangle 7_6" width="17.2297" height="106" rx="8.61487" transform="matrix(-3.12697e-08 -1 -1 6.11034e-08 1779 197)" fill="white"/>
</g>
<g id="subtraction_9">
<rect id="Rectangle 10_9" width="17" height="106" rx="8.5" transform="matrix(-3.16923e-08 -1 -1 6.02887e-08 2083 180)" fill="white"/>
</g>
<g id="addition_9">
<rect id="Rectangle 8_9" width="17.037" height="92" rx="8.51852" transform="matrix(-3.17162e-08 -1 -1 6.02433e-08 1924 180.519)" fill="white"/>
<rect id="Rectangle 9_9" width="17.037" height="92" rx="8.51852" transform="matrix(-1 8.74228e-08 1.1595e-07 1 1886.52 126)" fill="white"/>
</g>
<g id="multiplication_9">
<rect id="Rectangle 11_9" width="17.0124" height="91.8671" rx="8.50621" transform="matrix(-0.706776 -0.707438 -0.706776 0.707438 2212.95 145.035)" fill="white"/>
<rect id="Rectangle 12_9" width="17.0124" height="91.8671" rx="8.50621" transform="matrix(-0.706776 0.707438 0.706776 0.707438 2148.07 133.975)" fill="white"/>
</g>
</g>
<g id="operatorsline">
<g id="operators_10">
<g id="equals_7">
<rect id="Rectangle 6_7" width="17.2297" height="106" rx="8.61487" transform="matrix(-3.12697e-08 -1 -1 6.11034e-08 398 793.229)" fill="white"/>
<rect id="Rectangle 7_7" width="17.2297" height="106" rx="8.61487" transform="matrix(-3.12697e-08 -1 -1 6.11034e-08 398 827)" fill="white"/>
</g>
<g id="subtraction_10">
<rect id="Rectangle 10_10" width="17" height="106" rx="8.5" transform="matrix(-3.16923e-08 -1 -1 6.02887e-08 702 810)" fill="white"/>
</g>
<g id="addition_10">
<rect id="Rectangle 8_10" width="17.037" height="92" rx="8.51852" transform="matrix(-3.17162e-08 -1 -1 6.02433e-08 543 810.519)" fill="white"/>
<rect id="Rectangle 9_10" width="17.037" height="92" rx="8.51852" transform="matrix(-1 8.74228e-08 1.1595e-07 1 505.518 756)" fill="white"/>
</g>
<g id="multiplication_10">
<rect id="Rectangle 11_10" width="17.0124" height="91.8671" rx="8.50621" transform="matrix(-0.706776 -0.707438 -0.706776 0.707438 831.953 775.035)" fill="white"/>
<rect id="Rectangle 12_10" width="17.0124" height="91.8671" rx="8.50621" transform="matrix(-0.706776 0.707438 0.706776 0.707438 767.071 763.975)" fill="white"/>
</g>
<g id="division_7">
<rect id="Rectangle 13_7" width="17.0455" height="106" rx="8.52273" transform="matrix(-3.16077e-08 -1 -1 6.04499e-08 991 811.023)" fill="white"/>
<ellipse id="Ellipse 1_7" rx="8.15385" ry="8.18182" transform="matrix(1 0 0 -1 938 831.818)" fill="white"/>
<ellipse id="Ellipse 2_7" rx="8.15385" ry="8.18182" transform="matrix(1 0 0 -1 938 773.182)" fill="white"/>
</g>
</g>
<g id="operators_11">
<g id="equals_8">
<rect id="Rectangle 6_8" width="17.2297" height="106" rx="8.61487" transform="matrix(-3.12697e-08 -1 -1 6.11034e-08 1154 793.229)" fill="white"/>
<rect id="Rectangle 7_8" width="17.2297" height="106" rx="8.61487" transform="matrix(-3.12697e-08 -1 -1 6.11034e-08 1154 827)" fill="white"/>
</g>
<g id="subtraction_11">
<rect id="Rectangle 10_11" width="17" height="106" rx="8.5" transform="matrix(-3.16923e-08 -1 -1 6.02887e-08 1458 810)" fill="white"/>
</g>
<g id="addition_11">
<rect id="Rectangle 8_11" width="17.037" height="92" rx="8.51852" transform="matrix(-3.17162e-08 -1 -1 6.02433e-08 1299 810.519)" fill="white"/>
<rect id="Rectangle 9_11" width="17.037" height="92" rx="8.51852" transform="matrix(-1 8.74228e-08 1.1595e-07 1 1261.52 756)" fill="white"/>
</g>
<g id="multiplication_11">
<rect id="Rectangle 11_11" width="17.0124" height="91.8671" rx="8.50621" transform="matrix(-0.706776 -0.707438 -0.706776 0.707438 1587.95 775.035)" fill="white"/>
<rect id="Rectangle 12_11" width="17.0124" height="91.8671" rx="8.50621" transform="matrix(-0.706776 0.707438 0.706776 0.707438 1523.07 763.975)" fill="white"/>
</g>
<g id="division_8">
<rect id="Rectangle 13_8" width="17.0455" height="106" rx="8.52273" transform="matrix(-3.16077e-08 -1 -1 6.04499e-08 1747 811.023)" fill="white"/>
<ellipse id="Ellipse 1_8" rx="8.15385" ry="8.18182" transform="matrix(1 0 0 -1 1694 831.818)" fill="white"/>
<ellipse id="Ellipse 2_8" rx="8.15385" ry="8.18182" transform="matrix(1 0 0 -1 1694 773.182)" fill="white"/>
</g>
</g>
<g id="operators_12">
<g id="equals_9">
<rect id="Rectangle 6_9" width="17.2297" height="106" rx="8.61487" transform="matrix(-3.12697e-08 -1 -1 6.11034e-08 1910 793.229)" fill="white"/>
<rect id="Rectangle 7_9" width="17.2297" height="106" rx="8.61487" transform="matrix(-3.12697e-08 -1 -1 6.11034e-08 1910 827)" fill="white"/>
</g>
<g id="subtraction_12">
<rect id="Rectangle 10_12" width="17" height="106" rx="8.5" transform="matrix(-3.16923e-08 -1 -1 6.02887e-08 2214 810)" fill="white"/>
</g>
<g id="addition_12">
<rect id="Rectangle 8_12" width="17.037" height="92" rx="8.51852" transform="matrix(-3.17162e-08 -1 -1 6.02433e-08 2055 810.519)" fill="white"/>
<rect id="Rectangle 9_12" width="17.037" height="92" rx="8.51852" transform="matrix(-1 8.74228e-08 1.1595e-07 1 2017.52 756)" fill="white"/>
</g>
</g>
</g>
<g id="operatorsline_2">
<g id="operators_13">
<g id="equals_10">
<rect id="Rectangle 6_10" width="17.2297" height="106" rx="8.61487" transform="matrix(-3.12697e-08 -1 -1 6.11034e-08 403 415.229)" fill="white"/>
<rect id="Rectangle 7_10" width="17.2297" height="106" rx="8.61487" transform="matrix(-3.12697e-08 -1 -1 6.11034e-08 403 449)" fill="white"/>
</g>
<g id="subtraction_13">
<rect id="Rectangle 10_13" width="17" height="106" rx="8.5" transform="matrix(-3.16923e-08 -1 -1 6.02887e-08 707 432)" fill="white"/>
</g>
<g id="addition_13">
<rect id="Rectangle 8_13" width="17.037" height="92" rx="8.51852" transform="matrix(-3.17162e-08 -1 -1 6.02433e-08 548 432.519)" fill="white"/>
<rect id="Rectangle 9_13" width="17.037" height="92" rx="8.51852" transform="matrix(-1 8.74228e-08 1.1595e-07 1 510.519 378)" fill="white"/>
</g>
<g id="multiplication_12">
<rect id="Rectangle 11_12" width="17.0124" height="91.8671" rx="8.50621" transform="matrix(-0.706776 -0.707438 -0.706776 0.707438 836.953 397.035)" fill="white"/>
<rect id="Rectangle 12_12" width="17.0124" height="91.8671" rx="8.50621" transform="matrix(-0.706776 0.707438 0.706776 0.707438 772.071 385.975)" fill="white"/>
</g>
<g id="division_9">
<rect id="Rectangle 13_9" width="17.0455" height="106" rx="8.52273" transform="matrix(-3.16077e-08 -1 -1 6.04499e-08 996 433.023)" fill="white"/>
<ellipse id="Ellipse 1_9" rx="8.15385" ry="8.18182" transform="matrix(1 0 0 -1 943 453.818)" fill="white"/>
<ellipse id="Ellipse 2_9" rx="8.15385" ry="8.18182" transform="matrix(1 0 0 -1 943 395.182)" fill="white"/>
</g>
</g>
<g id="operators_14">
<g id="equals_11">
<rect id="Rectangle 6_11" width="17.2297" height="106" rx="8.61487" transform="matrix(-3.12697e-08 -1 -1 6.11034e-08 1159 415.229)" fill="white"/>
<rect id="Rectangle 7_11" width="17.2297" height="106" rx="8.61487" transform="matrix(-3.12697e-08 -1 -1 6.11034e-08 1159 449)" fill="white"/>
</g>
<g id="subtraction_14">
<rect id="Rectangle 10_14" width="17" height="106" rx="8.5" transform="matrix(-3.16923e-08 -1 -1 6.02887e-08 1463 432)" fill="white"/>
</g>
<g id="addition_14">
<rect id="Rectangle 8_14" width="17.037" height="92" rx="8.51852" transform="matrix(-3.17162e-08 -1 -1 6.02433e-08 1304 432.519)" fill="white"/>
<rect id="Rectangle 9_14" width="17.037" height="92" rx="8.51852" transform="matrix(-1 8.74228e-08 1.1595e-07 1 1266.52 378)" fill="white"/>
</g>
<g id="multiplication_13">
<rect id="Rectangle 11_13" width="17.0124" height="91.8671" rx="8.50621" transform="matrix(-0.706776 -0.707438 -0.706776 0.707438 1592.95 397.035)" fill="white"/>
<rect id="Rectangle 12_13" width="17.0124" height="91.8671" rx="8.50621" transform="matrix(-0.706776 0.707438 0.706776 0.707438 1528.07 385.975)" fill="white"/>
</g>
<g id="division_10">
<rect id="Rectangle 13_10" width="17.0455" height="106" rx="8.52273" transform="matrix(-3.16077e-08 -1 -1 6.04499e-08 1752 433.023)" fill="white"/>
<ellipse id="Ellipse 1_10" rx="8.15385" ry="8.18182" transform="matrix(1 0 0 -1 1699 453.818)" fill="white"/>
<ellipse id="Ellipse 2_10" rx="8.15385" ry="8.18182" transform="matrix(1 0 0 -1 1699 395.182)" fill="white"/>
</g>
</g>
<g id="operators_15">
<g id="equals_12">
<rect id="Rectangle 6_12" width="17.2297" height="106" rx="8.61487" transform="matrix(-3.12697e-08 -1 -1 6.11034e-08 1915 415.229)" fill="white"/>
<rect id="Rectangle 7_12" width="17.2297" height="106" rx="8.61487" transform="matrix(-3.12697e-08 -1 -1 6.11034e-08 1915 449)" fill="white"/>
</g>
<g id="subtraction_15">
<rect id="Rectangle 10_15" width="17" height="106" rx="8.5" transform="matrix(-3.16923e-08 -1 -1 6.02887e-08 2219 432)" fill="white"/>
</g>
<g id="addition_15">
<rect id="Rectangle 8_15" width="17.037" height="92" rx="8.51852" transform="matrix(-3.17162e-08 -1 -1 6.02433e-08 2060 432.519)" fill="white"/>
<rect id="Rectangle 9_15" width="17.037" height="92" rx="8.51852" transform="matrix(-1 8.74228e-08 1.1595e-07 1 2022.52 378)" fill="white"/>
</g>
</g>
</g>
<g id="operatorsline_3">
<g id="operators_16">
<g id="equals_13">
<rect id="Rectangle 6_13" width="17.2297" height="106" rx="8.61487" transform="matrix(-3.12697e-08 -1 -1 6.11034e-08 408 37.2295)" fill="white"/>
<rect id="Rectangle 7_13" width="17.2297" height="106" rx="8.61487" transform="matrix(-3.12697e-08 -1 -1 6.11034e-08 408 71)" fill="white"/>
</g>
<g id="subtraction_16">
<rect id="Rectangle 10_16" width="17" height="106" rx="8.5" transform="matrix(-3.16923e-08 -1 -1 6.02887e-08 712 54)" fill="white"/>
</g>
<g id="addition_16">
<rect id="Rectangle 8_16" width="17.037" height="92" rx="8.51852" transform="matrix(-3.17162e-08 -1 -1 6.02433e-08 553 54.5186)" fill="white"/>
<rect id="Rectangle 9_16" width="17.037" height="92" rx="8.51852" transform="matrix(-1 8.74228e-08 1.1595e-07 1 515.518 0)" fill="white"/>
</g>
<g id="multiplication_14">
<rect id="Rectangle 11_14" width="17.0124" height="91.8671" rx="8.50621" transform="matrix(-0.706776 -0.707438 -0.706776 0.707438 841.953 19.0352)" fill="white"/>
<rect id="Rectangle 12_14" width="17.0124" height="91.8671" rx="8.50621" transform="matrix(-0.706776 0.707438 0.706776 0.707438 777.071 7.97461)" fill="white"/>
</g>
<g id="division_11">
<rect id="Rectangle 13_11" width="17.0455" height="106" rx="8.52273" transform="matrix(-3.16077e-08 -1 -1 6.04499e-08 1001 55.0229)" fill="white"/>
<ellipse id="Ellipse 1_11" rx="8.15385" ry="8.18182" transform="matrix(1 0 0 -1 948 75.8182)" fill="white"/>
<ellipse id="Ellipse 2_11" rx="8.15385" ry="8.18182" transform="matrix(1 0 0 -1 948 17.182)" fill="white"/>
</g>
</g>
<g id="operators_17">
<g id="equals_14">
<rect id="Rectangle 6_14" width="17.2297" height="106" rx="8.61487" transform="matrix(-3.12697e-08 -1 -1 6.11034e-08 1164 37.2295)" fill="white"/>
<rect id="Rectangle 7_14" width="17.2297" height="106" rx="8.61487" transform="matrix(-3.12697e-08 -1 -1 6.11034e-08 1164 71)" fill="white"/>
</g>
<g id="subtraction_17">
<rect id="Rectangle 10_17" width="17" height="106" rx="8.5" transform="matrix(-3.16923e-08 -1 -1 6.02887e-08 1468 54)" fill="white"/>
</g>
<g id="addition_17">
<rect id="Rectangle 8_17" width="17.037" height="92" rx="8.51852" transform="matrix(-3.17162e-08 -1 -1 6.02433e-08 1309 54.5186)" fill="white"/>
<rect id="Rectangle 9_17" width="17.037" height="92" rx="8.51852" transform="matrix(-1 8.74228e-08 1.1595e-07 1 1271.52 0)" fill="white"/>
</g>
<g id="multiplication_15">
<rect id="Rectangle 11_15" width="17.0124" height="91.8671" rx="8.50621" transform="matrix(-0.706776 -0.707438 -0.706776 0.707438 1597.95 19.0352)" fill="white"/>
<rect id="Rectangle 12_15" width="17.0124" height="91.8671" rx="8.50621" transform="matrix(-0.706776 0.707438 0.706776 0.707438 1533.07 7.97461)" fill="white"/>
</g>
<g id="division_12">
<rect id="Rectangle 13_12" width="17.0455" height="106" rx="8.52273" transform="matrix(-3.16077e-08 -1 -1 6.04499e-08 1757 55.0229)" fill="white"/>
<ellipse id="Ellipse 1_12" rx="8.15385" ry="8.18182" transform="matrix(1 0 0 -1 1704 75.8182)" fill="white"/>
<ellipse id="Ellipse 2_12" rx="8.15385" ry="8.18182" transform="matrix(1 0 0 -1 1704 17.182)" fill="white"/>
</g>
</g>
<g id="operators_18">
<g id="equals_15">
<rect id="Rectangle 6_15" width="17.2297" height="106" rx="8.61487" transform="matrix(-3.12697e-08 -1 -1 6.11034e-08 1920 37.2295)" fill="white"/>
<rect id="Rectangle 7_15" width="17.2297" height="106" rx="8.61487" transform="matrix(-3.12697e-08 -1 -1 6.11034e-08 1920 71)" fill="white"/>
</g>
<g id="subtraction_18">
<rect id="Rectangle 10_18" width="17" height="106" rx="8.5" transform="matrix(-3.16923e-08 -1 -1 6.02887e-08 2224 54)" fill="white"/>
</g>
<g id="addition_18">
<rect id="Rectangle 8_18" width="17.037" height="92" rx="8.51852" transform="matrix(-3.17162e-08 -1 -1 6.02433e-08 2065 54.5186)" fill="white"/>
<rect id="Rectangle 9_18" width="17.037" height="92" rx="8.51852" transform="matrix(-1 8.74228e-08 1.1595e-07 1 2027.52 0)" fill="white"/>
</g>
</g>
</g>
<g id="operatorsline_4">
<g id="operators_19">
<g id="subtraction_19">
<rect id="Rectangle 10_19" width="17" height="106" rx="8.5" transform="matrix(-3.16923e-08 -1 -1 6.02887e-08 410 684)" fill="white"/>
</g>
<g id="multiplication_16">
<rect id="Rectangle 11_16" width="17.0124" height="91.8671" rx="8.50621" transform="matrix(-0.706776 -0.707438 -0.706776 0.707438 539.953 649.035)" fill="white"/>
<rect id="Rectangle 12_16" width="17.0124" height="91.8671" rx="8.50621" transform="matrix(-0.706776 0.707438 0.706776 0.707438 475.071 637.975)" fill="white"/>
</g>
<g id="division_13">
<rect id="Rectangle 13_13" width="17.0455" height="106" rx="8.52273" transform="matrix(-3.16077e-08 -1 -1 6.04499e-08 699 685.023)" fill="white"/>
<ellipse id="Ellipse 1_13" rx="8.15385" ry="8.18182" transform="matrix(1 0 0 -1 646 705.818)" fill="white"/>
<ellipse id="Ellipse 2_13" rx="8.15385" ry="8.18182" transform="matrix(1 0 0 -1 646 647.182)" fill="white"/>
</g>
</g>
<g id="operators_20">
<g id="equals_16">
<rect id="Rectangle 6_16" width="17.2297" height="106" rx="8.61487" transform="matrix(-3.12697e-08 -1 -1 6.11034e-08 862 667.229)" fill="white"/>
<rect id="Rectangle 7_16" width="17.2297" height="106" rx="8.61487" transform="matrix(-3.12697e-08 -1 -1 6.11034e-08 862 701)" fill="white"/>
</g>
<g id="subtraction_20">
<rect id="Rectangle 10_20" width="17" height="106" rx="8.5" transform="matrix(-3.16923e-08 -1 -1 6.02887e-08 1166 684)" fill="white"/>
</g>
<g id="addition_19">
<rect id="Rectangle 8_19" width="17.037" height="92" rx="8.51852" transform="matrix(-3.17162e-08 -1 -1 6.02433e-08 1007 684.519)" fill="white"/>
<rect id="Rectangle 9_19" width="17.037" height="92" rx="8.51852" transform="matrix(-1 8.74228e-08 1.1595e-07 1 969.519 630)" fill="white"/>
</g>
<g id="multiplication_17">
<rect id="Rectangle 11_17" width="17.0124" height="91.8671" rx="8.50621" transform="matrix(-0.706776 -0.707438 -0.706776 0.707438 1295.95 649.035)" fill="white"/>
<rect id="Rectangle 12_17" width="17.0124" height="91.8671" rx="8.50621" transform="matrix(-0.706776 0.707438 0.706776 0.707438 1231.07 637.975)" fill="white"/>
</g>
<g id="division_14">
<rect id="Rectangle 13_14" width="17.0455" height="106" rx="8.52273" transform="matrix(-3.16077e-08 -1 -1 6.04499e-08 1455 685.023)" fill="white"/>
<ellipse id="Ellipse 1_14" rx="8.15385" ry="8.18182" transform="matrix(1 0 0 -1 1402 705.818)" fill="white"/>
<ellipse id="Ellipse 2_14" rx="8.15385" ry="8.18182" transform="matrix(1 0 0 -1 1402 647.182)" fill="white"/>
</g>
</g>
<g id="operators_21">
<g id="equals_17">
<rect id="Rectangle 6_17" width="17.2297" height="106" rx="8.61487" transform="matrix(-3.12697e-08 -1 -1 6.11034e-08 1618 667.229)" fill="white"/>
<rect id="Rectangle 7_17" width="17.2297" height="106" rx="8.61487" transform="matrix(-3.12697e-08 -1 -1 6.11034e-08 1618 701)" fill="white"/>
</g>
<g id="subtraction_21">
<rect id="Rectangle 10_21" width="17" height="106" rx="8.5" transform="matrix(-3.16923e-08 -1 -1 6.02887e-08 1922 684)" fill="white"/>
</g>
<g id="addition_20">
<rect id="Rectangle 8_20" width="17.037" height="92" rx="8.51852" transform="matrix(-3.17162e-08 -1 -1 6.02433e-08 1763 684.519)" fill="white"/>
<rect id="Rectangle 9_20" width="17.037" height="92" rx="8.51852" transform="matrix(-1 8.74228e-08 1.1595e-07 1 1725.52 630)" fill="white"/>
</g>
<g id="multiplication_18">
<rect id="Rectangle 11_18" width="17.0124" height="91.8671" rx="8.50621" transform="matrix(-0.706776 -0.707438 -0.706776 0.707438 2051.95 649.035)" fill="white"/>
<rect id="Rectangle 12_18" width="17.0124" height="91.8671" rx="8.50621" transform="matrix(-0.706776 0.707438 0.706776 0.707438 1987.07 637.975)" fill="white"/>
</g>
<g id="division_15">
<rect id="Rectangle 13_15" width="17.0455" height="106" rx="8.52273" transform="matrix(-3.16077e-08 -1 -1 6.04499e-08 2211 685.023)" fill="white"/>
<ellipse id="Ellipse 1_15" rx="8.15385" ry="8.18182" transform="matrix(1 0 0 -1 2158 705.818)" fill="white"/>
<ellipse id="Ellipse 2_15" rx="8.15385" ry="8.18182" transform="matrix(1 0 0 -1 2158 647.182)" fill="white"/>
</g>
</g>
</g>
<g id="operatorsline_5">
<g id="operators_22">
<g id="subtraction_22">
<rect id="Rectangle 10_22" width="17" height="106" rx="8.5" transform="matrix(-3.16923e-08 -1 -1 6.02887e-08 415 306)" fill="white"/>
</g>
<g id="multiplication_19">
<rect id="Rectangle 11_19" width="17.0124" height="91.8671" rx="8.50621" transform="matrix(-0.706776 -0.707438 -0.706776 0.707438 544.953 271.035)" fill="white"/>
<rect id="Rectangle 12_19" width="17.0124" height="91.8671" rx="8.50621" transform="matrix(-0.706776 0.707438 0.706776 0.707438 480.07 259.975)" fill="white"/>
</g>
<g id="division_16">
<rect id="Rectangle 13_16" width="17.0455" height="106" rx="8.52273" transform="matrix(-3.16077e-08 -1 -1 6.04499e-08 704 307.023)" fill="white"/>
<ellipse id="Ellipse 1_16" rx="8.15385" ry="8.18182" transform="matrix(1 0 0 -1 651 327.818)" fill="white"/>
<ellipse id="Ellipse 2_16" rx="8.15385" ry="8.18182" transform="matrix(1 0 0 -1 651 269.182)" fill="white"/>
</g>
</g>
<g id="operators_23">
<g id="equals_18">
<rect id="Rectangle 6_18" width="17.2297" height="106" rx="8.61487" transform="matrix(-3.12697e-08 -1 -1 6.11034e-08 867 289.229)" fill="white"/>
<rect id="Rectangle 7_18" width="17.2297" height="106" rx="8.61487" transform="matrix(-3.12697e-08 -1 -1 6.11034e-08 867 323)" fill="white"/>
</g>
<g id="subtraction_23">
<rect id="Rectangle 10_23" width="17" height="106" rx="8.5" transform="matrix(-3.16923e-08 -1 -1 6.02887e-08 1171 306)" fill="white"/>
</g>
<g id="addition_21">
<rect id="Rectangle 8_21" width="17.037" height="92" rx="8.51852" transform="matrix(-3.17162e-08 -1 -1 6.02433e-08 1012 306.519)" fill="white"/>
<rect id="Rectangle 9_21" width="17.037" height="92" rx="8.51852" transform="matrix(-1 8.74228e-08 1.1595e-07 1 974.518 252)" fill="white"/>
</g>
<g id="multiplication_20">
<rect id="Rectangle 11_20" width="17.0124" height="91.8671" rx="8.50621" transform="matrix(-0.706776 -0.707438 -0.706776 0.707438 1300.95 271.035)" fill="white"/>
<rect id="Rectangle 12_20" width="17.0124" height="91.8671" rx="8.50621" transform="matrix(-0.706776 0.707438 0.706776 0.707438 1236.07 259.975)" fill="white"/>
</g>
<g id="division_17">
<rect id="Rectangle 13_17" width="17.0455" height="106" rx="8.52273" transform="matrix(-3.16077e-08 -1 -1 6.04499e-08 1460 307.023)" fill="white"/>
<ellipse id="Ellipse 1_17" rx="8.15385" ry="8.18182" transform="matrix(1 0 0 -1 1407 327.818)" fill="white"/>
<ellipse id="Ellipse 2_17" rx="8.15385" ry="8.18182" transform="matrix(1 0 0 -1 1407 269.182)" fill="white"/>
</g>
</g>
<g id="operators_24">
<g id="equals_19">
<rect id="Rectangle 6_19" width="17.2297" height="106" rx="8.61487" transform="matrix(-3.12697e-08 -1 -1 6.11034e-08 1623 289.229)" fill="white"/>
<rect id="Rectangle 7_19" width="17.2297" height="106" rx="8.61487" transform="matrix(-3.12697e-08 -1 -1 6.11034e-08 1623 323)" fill="white"/>
</g>
<g id="subtraction_24">
<rect id="Rectangle 10_24" width="17" height="106" rx="8.5" transform="matrix(-3.16923e-08 -1 -1 6.02887e-08 1927 306)" fill="white"/>
</g>
<g id="addition_22">
<rect id="Rectangle 8_22" width="17.037" height="92" rx="8.51852" transform="matrix(-3.17162e-08 -1 -1 6.02433e-08 1768 306.519)" fill="white"/>
<rect id="Rectangle 9_22" width="17.037" height="92" rx="8.51852" transform="matrix(-1 8.74228e-08 1.1595e-07 1 1730.52 252)" fill="white"/>
</g>
<g id="multiplication_21">
<rect id="Rectangle 11_21" width="17.0124" height="91.8671" rx="8.50621" transform="matrix(-0.706776 -0.707438 -0.706776 0.707438 2056.95 271.035)" fill="white"/>
<rect id="Rectangle 12_21" width="17.0124" height="91.8671" rx="8.50621" transform="matrix(-0.706776 0.707438 0.706776 0.707438 1992.07 259.975)" fill="white"/>
</g>
<g id="division_18">
<rect id="Rectangle 13_18" width="17.0455" height="106" rx="8.52273" transform="matrix(-3.16077e-08 -1 -1 6.04499e-08 2216 307.023)" fill="white"/>
<ellipse id="Ellipse 1_18" rx="8.15385" ry="8.18182" transform="matrix(1 0 0 -1 2163 327.818)" fill="white"/>
<ellipse id="Ellipse 2_18" rx="8.15385" ry="8.18182" transform="matrix(1 0 0 -1 2163 269.182)" fill="white"/>
</g>
</g>
</g>
</g>
</svg>
