<svg width="242" height="63" viewBox="0 0 242 63" fill="none" xmlns="http://www.w3.org/2000/svg">
<g filter="url(#filter0_d)">
<rect x="4" width="234" height="55" rx="10" fill="#4558FA"/>
<path d="M57.7998 30.1924H54.2988V38H49.9043V16.6719H57.8291C60.3486 16.6719 62.292 17.2334 63.6592 18.3564C65.0264 19.4795 65.71 21.0664 65.71 23.1172C65.71 24.5723 65.3926 25.7881 64.7578 26.7646C64.1328 27.7314 63.1807 28.5029 61.9014 29.0791L66.5156 37.7949V38H61.7988L57.7998 30.1924ZM54.2988 26.6328H57.8438C58.9473 26.6328 59.8018 26.3545 60.4072 25.7979C61.0127 25.2314 61.3154 24.4551 61.3154 23.4688C61.3154 22.4629 61.0273 21.6719 60.4512 21.0957C59.8848 20.5195 59.0107 20.2314 57.8291 20.2314H54.2988V26.6328ZM76.0811 38.293C73.7568 38.293 71.8623 37.5801 70.3975 36.1543C68.9424 34.7285 68.2148 32.8291 68.2148 30.4561V30.0459C68.2148 28.4541 68.5225 27.0332 69.1377 25.7832C69.7529 24.5234 70.6221 23.5566 71.7451 22.8828C72.8779 22.1992 74.167 21.8574 75.6123 21.8574C77.7803 21.8574 79.4844 22.541 80.7246 23.9082C81.9746 25.2754 82.5996 27.2139 82.5996 29.7236V31.4521H72.5068C72.6436 32.4873 73.0537 33.3174 73.7373 33.9424C74.4307 34.5674 75.3047 34.8799 76.3594 34.8799C77.9902 34.8799 79.2646 34.2891 80.1826 33.1074L82.2627 35.4365C81.6279 36.335 80.7686 37.0381 79.6846 37.5459C78.6006 38.0439 77.3994 38.293 76.0811 38.293ZM75.5977 25.2852C74.7578 25.2852 74.0742 25.5684 73.5469 26.1348C73.0293 26.7012 72.6973 27.5117 72.5508 28.5664H78.4395V28.2295C78.4199 27.292 78.166 26.5693 77.6777 26.0615C77.1895 25.5439 76.4961 25.2852 75.5977 25.2852ZM94.2012 38C94.0059 37.6191 93.8643 37.1455 93.7764 36.5791C92.751 37.7217 91.418 38.293 89.7773 38.293C88.2246 38.293 86.9355 37.8438 85.9102 36.9453C84.8945 36.0469 84.3867 34.9141 84.3867 33.5469C84.3867 31.8672 85.0068 30.5781 86.2471 29.6797C87.4971 28.7812 89.2988 28.3271 91.6523 28.3174H93.6006V27.4092C93.6006 26.6768 93.4102 26.0908 93.0293 25.6514C92.6582 25.2119 92.0674 24.9922 91.2568 24.9922C90.5439 24.9922 89.9824 25.1631 89.5723 25.5049C89.1719 25.8467 88.9717 26.3154 88.9717 26.9111H84.7383C84.7383 25.9932 85.0215 25.1436 85.5879 24.3623C86.1543 23.5811 86.9551 22.9707 87.9902 22.5312C89.0254 22.082 90.1875 21.8574 91.4766 21.8574C93.4297 21.8574 94.9775 22.3506 96.1201 23.3369C97.2725 24.3135 97.8486 25.6904 97.8486 27.4678V34.3379C97.8584 35.8418 98.0684 36.9795 98.4785 37.751V38H94.2012ZM90.7002 35.0557C91.3252 35.0557 91.9014 34.9189 92.4287 34.6455C92.9561 34.3623 93.3467 33.9863 93.6006 33.5176V30.793H92.0186C89.8994 30.793 88.7715 31.5254 88.6348 32.9902L88.6201 33.2393C88.6201 33.7666 88.8057 34.2012 89.1768 34.543C89.5479 34.8848 90.0557 35.0557 90.7002 35.0557ZM100.441 29.958C100.441 27.4873 100.993 25.5195 102.097 24.0547C103.21 22.5898 104.729 21.8574 106.652 21.8574C108.195 21.8574 109.47 22.4336 110.476 23.5859V15.5H114.724V38H110.9L110.695 36.3154C109.641 37.6338 108.283 38.293 106.623 38.293C104.758 38.293 103.259 37.5605 102.126 36.0957C101.003 34.6211 100.441 32.5752 100.441 29.958ZM104.675 30.2656C104.675 31.75 104.934 32.8877 105.451 33.6787C105.969 34.4697 106.721 34.8652 107.707 34.8652C109.016 34.8652 109.938 34.3135 110.476 33.21V26.9551C109.948 25.8516 109.035 25.2998 107.736 25.2998C105.695 25.2998 104.675 26.9551 104.675 30.2656ZM131.496 16.6719L136.975 32.1406L142.424 16.6719H148.195V38H143.786V32.1699L144.226 22.1064L138.469 38H135.451L129.709 22.1211L130.148 32.1699V38H125.754V16.6719H131.496ZM151.096 29.9287C151.096 28.3564 151.398 26.9551 152.004 25.7246C152.609 24.4941 153.479 23.542 154.611 22.8682C155.754 22.1943 157.077 21.8574 158.581 21.8574C160.72 21.8574 162.463 22.5117 163.811 23.8203C165.168 25.1289 165.925 26.9062 166.081 29.1523L166.11 30.2363C166.11 32.668 165.432 34.6211 164.074 36.0957C162.717 37.5605 160.896 38.293 158.61 38.293C156.325 38.293 154.499 37.5605 153.132 36.0957C151.774 34.6309 151.096 32.6387 151.096 30.1191V29.9287ZM155.329 30.2363C155.329 31.7402 155.612 32.8926 156.179 33.6934C156.745 34.4844 157.556 34.8799 158.61 34.8799C159.636 34.8799 160.437 34.4893 161.013 33.708C161.589 32.917 161.877 31.6572 161.877 29.9287C161.877 28.4541 161.589 27.3115 161.013 26.501C160.437 25.6904 159.626 25.2852 158.581 25.2852C157.546 25.2852 156.745 25.6904 156.179 26.501C155.612 27.3018 155.329 28.5469 155.329 30.2363ZM177.624 26.1201C177.048 26.042 176.54 26.0029 176.101 26.0029C174.499 26.0029 173.449 26.5449 172.951 27.6289V38H168.718V22.1504H172.717L172.834 24.04C173.684 22.585 174.86 21.8574 176.364 21.8574C176.833 21.8574 177.272 21.9209 177.683 22.0479L177.624 26.1201ZM186.677 38.293C184.353 38.293 182.458 37.5801 180.993 36.1543C179.538 34.7285 178.811 32.8291 178.811 30.4561V30.0459C178.811 28.4541 179.118 27.0332 179.733 25.7832C180.349 24.5234 181.218 23.5566 182.341 22.8828C183.474 22.1992 184.763 21.8574 186.208 21.8574C188.376 21.8574 190.08 22.541 191.32 23.9082C192.57 25.2754 193.195 27.2139 193.195 29.7236V31.4521H183.103C183.239 32.4873 183.649 33.3174 184.333 33.9424C185.026 34.5674 185.9 34.8799 186.955 34.8799C188.586 34.8799 189.86 34.2891 190.778 33.1074L192.858 35.4365C192.224 36.335 191.364 37.0381 190.28 37.5459C189.196 38.0439 187.995 38.293 186.677 38.293ZM186.193 25.2852C185.354 25.2852 184.67 25.5684 184.143 26.1348C183.625 26.7012 183.293 27.5117 183.146 28.5664H189.035V28.2295C189.016 27.292 188.762 26.5693 188.273 26.0615C187.785 25.5439 187.092 25.2852 186.193 25.2852Z" fill="white"/>
</g>
<defs>
<filter id="filter0_d" x="0" y="0" width="242" height="63" filterUnits="userSpaceOnUse" color-interpolation-filters="sRGB">
<feFlood flood-opacity="0" result="BackgroundImageFix"/>
<feColorMatrix in="SourceAlpha" type="matrix" values="0 0 0 0 0 0 0 0 0 0 0 0 0 0 0 0 0 0 127 0"/>
<feOffset dy="4"/>
<feGaussianBlur stdDeviation="2"/>
<feColorMatrix type="matrix" values="0 0 0 0 0 0 0 0 0 0 0 0 0 0 0 0 0 0 0.25 0"/>
<feBlend mode="normal" in2="BackgroundImageFix" result="effect1_dropShadow"/>
<feBlend mode="normal" in="SourceGraphic" in2="effect1_dropShadow" result="shape"/>
</filter>
</defs>
</svg>
