<svg xmlns="http://www.w3.org/2000/svg" viewBox="0 0 2463 907"><defs><style>.cls-1,.cls-3{stroke:#fff;stroke-miterlimit:10;stroke-width:18px;}.cls-2{fill:#fff;}.cls-3{fill:none;}</style></defs><g id="Layer_5" data-name="Layer 5"><rect width="2463" height="907"/></g><g id="Layer_4" data-name="Layer 4"><circle class="cls-1" cx="471.9" cy="458.7" r="392.1"/><rect class="cls-2" x="133.26" y="445.33" width="481.22" height="26.73" rx="5" transform="translate(-183.33 657.98) rotate(-70.5)"/><rect class="cls-3" x="133.26" y="445.33" width="481.22" height="26.73" rx="5" transform="translate(-183.33 657.98) rotate(-70.5)"/><rect class="cls-2" x="329.31" y="445.33" width="481.22" height="26.73" rx="5" transform="translate(-52.73 842.79) rotate(-70.5)"/><rect class="cls-3" x="329.31" y="445.33" width="481.22" height="26.73" rx="5" transform="translate(-52.73 842.79) rotate(-70.5)"/><rect class="cls-2" x="244.65" y="365.13" width="481.22" height="26.73" rx="5"/><rect class="cls-3" x="244.65" y="365.13" width="481.22" height="26.73" rx="5"/><rect class="cls-2" x="217.92" y="521.08" width="481.22" height="26.73" rx="5"/><rect class="cls-3" x="217.92" y="521.08" width="481.22" height="26.73" rx="5"/><path class="cls-2" d="M978.21,541.18v-166h34.22v27.58q15.09-16.71,27.37-24.46a50.26,50.26,0,0,1,27.37-7.74q22.55,0,38.55,14.89t16,35.82v120h-35V431.49q0-13.49-8.76-22.34t-22.24-8.86q-17.51,0-30.19,14.8t-12.68,35.72v90.37Z"/><path class="cls-2" d="M1159.15,375.13h35v93.59q0,43.27,38,43.28,16.9,0,26.77-11.58t9.86-31.7V375.13h34.62v99.23q0,31.2-20.33,51.32t-51.92,20.13q-32.2,0-52.13-20.13t-19.93-52.53Z"/><path class="cls-2" d="M1342.51,541.18v-166h34.61V400.7q12.29-15.7,23.45-22.95a46.11,46.11,0,0,1,25.66-7.24q18.91,0,29.69,8.25t18.21,26.36q13.14-18.11,25.36-26.36t28.39-8.25q19.8,0,34.15,14.79a48.75,48.75,0,0,1,14.35,35.12V541.18h-35V429.48q0-27.57-27.26-27.58-15.55,0-26.35,14.09T1477,450.81v90.37h-35V434.11q0-32.61-26.77-32.61-15.9,0-27,13.28t-11.07,32.81v93.59Z"/><path class="cls-2" d="M1626.09,279.94h34.62v128q22.33-37.44,64-37.43,32.19,0,55.85,25.76t23.65,61.18q0,35.43-23.25,61.89t-54.24,26.47a72.83,72.83,0,0,1-37.84-10.67,76.85,76.85,0,0,1-28.17-29v35h-34.62Zm141.08,177.51q0-22.74-16.3-38.94a53.91,53.91,0,0,0-39.45-16.2q-22.34,0-38.74,16.4t-16.4,38.74q0,23.35,16.4,39.35t40.35,16q22.14,0,38.14-16.3A53.76,53.76,0,0,0,1767.17,457.45Z"/><path class="cls-2" d="M1852.91,279.94h35V541.18h-35Z"/><path class="cls-2" d="M2104.29,464.9H1962.6q4.64,25.56,21,37.33A60,60,0,0,0,2019.36,514q29.79,0,49.91-24.76l25.56,19.32q-28.78,37.24-77.08,37.24-37,0-62-25.36t-25-63q0-35.22,25.26-61.08t61.69-25.86q35.82,0,61.39,26.26T2104.29,464.9Zm-138.06-28h101.43q-16.9-34.21-49.91-34.21Q1981.72,402.71,1966.23,436.92Z"/><path class="cls-2" d="M2283.82,279.94h34.62V541.18h-34.22V506.56q-24.78,39.26-64.89,39.25-32.46,0-55.63-26t-23.18-62.39q0-35.62,23.58-61.28t56.24-25.66a66.28,66.28,0,0,1,36.47,10.86,81.67,81.67,0,0,1,27,28.38Zm4,177.91q0-22.34-16.34-38.74t-38.91-16.4q-23.38,0-39.62,16t-16.23,39.14q0,22.15,16.53,38.75t38.52,16.6q23.38,0,39.71-16.1T2287.85,457.85Z"/><path class="cls-2" d="M2365.94,517.63a27,27,0,1,1,7.95,19.32A26.29,26.29,0,0,1,2365.94,517.63Z"/></g></svg>