<svg xmlns="http://www.w3.org/2000/svg" viewBox="0 0 960.27 294"><defs><style>.cls-1{font-size:176.15px;font-family:TwCenMT-Regular, Tw Cen MT;}.cls-2{fill:#fff;stroke:#000;stroke-miterlimit:10;stroke-width:10px;}</style></defs><g id="Layer_1" data-name="Layer 1"><text class="cls-1" transform="translate(328.79 212.36)">numbled.</text></g><g id="Layer_2" data-name="Layer 2"><circle class="cls-2" cx="147" cy="147" r="142"/><path d="M112.64,368a4.84,4.84,0,1,1-9.12-3.23L158.36,210a4.84,4.84,0,1,1,9.12,3.23Z" transform="translate(-24 -142)"/><path d="M183.64,368a4.84,4.84,0,1,1-9.12-3.23L229.36,210a4.84,4.84,0,1,1,9.12,3.23Z" transform="translate(-24 -142)"/><path d="M258,255.11a4.85,4.85,0,1,1,0,9.69H93.7a4.85,4.85,0,1,1,0-9.69Z" transform="translate(-24 -142)"/><path d="M248.3,311.59a4.84,4.84,0,1,1,0,9.68H84a4.84,4.84,0,1,1,0-9.68Z" transform="translate(-24 -142)"/></g></svg>