<?xml version="1.0" encoding="utf-8"?>
<!-- Generator: Adobe Illustrator 24.1.3, SVG Export Plug-In . SVG Version: 6.00 Build 0)  -->
<svg version="1.1" xmlns="http://www.w3.org/2000/svg" xmlns:xlink="http://www.w3.org/1999/xlink" x="0px" y="0px"
	 viewBox="0 0 1000 595" style="enable-background:new 0 0 1000 595;" xml:space="preserve">
<style type="text/css">
	.st0{fill:#FFFFFF;}
	.st1{font-family:'TwCenMT-Regular';}
	.st2{font-size:176.1481px;}
	.st3{stroke:#FFFFFF;stroke-width:10;stroke-miterlimit:10;}
	.st4{fill:#FFFFFF;stroke:#000000;stroke-width:10;stroke-miterlimit:10;}
</style>
<g id="Layer_3">
</g>
<g id="Layer_1">
	<text transform="matrix(1 0 0 1 352.7881 351.3555)" class="st0 st1 st2">numbled.</text>
</g>
<g id="Layer_2">
	<g>
		<circle class="st3" cx="171" cy="286" r="142"/>
		<g>
			<g>
				<path class="st0" d="M112.64,365.04c-0.92,2.59-3.72,3.99-6.23,3.1c-2.51-0.89-3.81-3.74-2.89-6.33l54.84-154.85
					c0.92-2.59,3.72-3.99,6.23-3.1c2.51,0.89,3.81,3.74,2.89,6.33L112.64,365.04z"/>
			</g>
			<g>
				<path class="st0" d="M183.64,365.04c-0.92,2.59-3.72,3.99-6.23,3.1c-2.51-0.89-3.81-3.74-2.89-6.33l54.84-154.85
					c0.92-2.59,3.72-3.99,6.23-3.1c2.51,0.89,3.81,3.74,2.89,6.33L183.64,365.04z"/>
			</g>
			<g>
				<path class="st0" d="M257.98,252.11c2.75,0,5,2.18,5,4.84c0,2.66-2.25,4.84-5,4.84H93.7c-2.75,0-5-2.18-5-4.84
					c0-2.66,2.25-4.84,5-4.84H257.98z"/>
			</g>
			<g>
				<path class="st0" d="M248.3,308.59c2.75,0,5,2.18,5,4.84s-2.25,4.84-5,4.84H84.02c-2.75,0-5-2.18-5-4.84s2.25-4.84,5-4.84H248.3
					z"/>
			</g>
		</g>
	</g>
</g>
</svg>
