<svg xmlns="http://www.w3.org/2000/svg" viewBox="0 0 4381.77 2308"><defs><style>.cls-1,.cls-3{fill:#fff;}.cls-2,.cls-4,.cls-5{stroke:#fff;}.cls-2,.cls-3,.cls-4,.cls-5{stroke-miterlimit:10;}.cls-2,.cls-3{stroke-width:10px;}.cls-3{stroke:#000;}.cls-4,.cls-5{stroke-width:18px;}.cls-5{fill:none;}</style></defs><g id="Layer_3" data-name="Layer 3"><rect width="1000" height="595"/><rect x="1075" width="736" height="595"/></g><g id="Layer_1" data-name="Layer 1"><path class="cls-1" d="M360,351.36v-71h14.62v11.78a59.75,59.75,0,0,1,11.7-10.45,21.46,21.46,0,0,1,11.7-3.31,23.33,23.33,0,0,1,16.47,6.36,20.19,20.19,0,0,1,6.84,15.31v51.27h-15V304.48a13,13,0,0,0-3.74-9.55,12.79,12.79,0,0,0-9.5-3.78q-7.49,0-12.9,6.32a22.62,22.62,0,0,0-5.42,15.27v38.62Z"/><path class="cls-1" d="M437.34,280.4h15v40q0,18.5,16.26,18.49,7.21,0,11.44-4.94t4.21-13.55v-40H499v42.4q0,13.33-8.68,21.93t-22.19,8.6q-13.77,0-22.28-8.6t-8.51-22.45Z"/><path class="cls-1" d="M515.69,351.36v-71h14.79v10.92a43.51,43.51,0,0,1,10-9.8,19.68,19.68,0,0,1,11-3.1q8.09,0,12.69,3.53t7.78,11.26q5.61-7.74,10.84-11.26a21.15,21.15,0,0,1,12.13-3.53,19.64,19.64,0,0,1,14.59,6.32,20.83,20.83,0,0,1,6.13,15v51.61h-15V303.62q0-11.78-11.65-11.78-6.64,0-11.26,6t-4.61,14.88v38.62h-15V305.6q0-13.94-11.44-13.94a14.52,14.52,0,0,0-11.53,5.68,21.2,21.2,0,0,0-4.73,14v40Z"/><path class="cls-1" d="M636.88,239.71h14.79v54.71q9.55-16,27.35-16,13.77,0,23.87,11A37.35,37.35,0,0,1,713,315.58,38.77,38.77,0,0,1,703.06,342q-9.93,11.31-23.18,11.31a31.22,31.22,0,0,1-16.17-4.55,32.93,32.93,0,0,1-12-12.39v15H636.88Zm60.29,75.87a22.65,22.65,0,0,0-7-16.65A23.07,23.07,0,0,0,673.35,292a23.6,23.6,0,0,0-16.56,40.38A23.74,23.74,0,0,0,674,339.23a22,22,0,0,0,16.29-7A23,23,0,0,0,697.17,315.58Z"/><path class="cls-1" d="M733.81,239.71h15V351.36h-15Z"/><path class="cls-1" d="M841.24,318.76H780.69q2,10.92,9,15.95a25.63,25.63,0,0,0,15.27,5q12.73,0,21.33-10.57l10.93,8.25q-12.3,15.91-33,15.91-15.82,0-26.49-10.83T767.1,315.58a36.15,36.15,0,0,1,10.79-26.11,36.63,36.63,0,0,1,52.6.17Q841.41,300.88,841.24,318.76Zm-59-12h43.34q-7.22-14.62-21.33-14.62Q788.86,292.18,782.24,306.8Z"/><path class="cls-1" d="M918,239.71h14.79V351.36H918.13v-14.8q-10.59,16.77-27.73,16.77-13.87,0-23.78-11.09a38.68,38.68,0,0,1-9.9-26.66,37.37,37.37,0,0,1,10.08-26.19q10.07-11,24-11a28.39,28.39,0,0,1,15.59,4.64A34.92,34.92,0,0,1,918,295.19Zm1.72,76a23.89,23.89,0,0,0-23.61-23.57A23.2,23.2,0,0,0,879.14,299a23.81,23.81,0,0,0,16.59,40.38,23.25,23.25,0,0,0,17-6.88A22.68,22.68,0,0,0,919.68,315.75Z"/><path class="cls-1" d="M953.05,341.29a11.52,11.52,0,1,1,3.4,8.26A11.23,11.23,0,0,1,953.05,341.29Z"/><path d="M353.17,987.85V913.64h15.29V926A61.8,61.8,0,0,1,380.69,915a22.43,22.43,0,0,1,12.23-3.47,24.39,24.39,0,0,1,17.23,6.66,21.12,21.12,0,0,1,7.15,16v53.61H401.65v-49a13.63,13.63,0,0,0-3.92-10,13.4,13.4,0,0,0-9.94-4q-7.82,0-13.49,6.62a23.72,23.72,0,0,0-5.66,16v40.39Z"/><path d="M434,913.64h15.65v41.83q0,19.34,17,19.34,7.56,0,12-5.18t4.41-14.16V913.64h15.47V958q0,13.93-9.09,22.93t-23.2,9q-14.4,0-23.3-9T434,957.45Z"/><path d="M516,987.85V913.64h15.47v11.42a45.63,45.63,0,0,1,10.48-10.25,20.6,20.6,0,0,1,11.47-3.24c5.63,0,10.06,1.23,13.26,3.69s5.93,6.39,8.14,11.78q5.88-8.09,11.34-11.78a22.11,22.11,0,0,1,12.68-3.69,20.59,20.59,0,0,1,15.27,6.61,21.8,21.8,0,0,1,6.41,15.7v54H604.84V937.93q0-12.33-12.18-12.33-7,0-11.78,6.3t-4.83,15.56v40.39H560.4V940q0-14.58-12-14.58a15.13,15.13,0,0,0-12.05,5.94A22.14,22.14,0,0,0,531.44,946v41.83Z"/><path d="M642.7,871.1h15.47v57.2q10-16.72,28.61-16.73,14.38,0,25,11.52a39.09,39.09,0,0,1,10.57,27.34,40.64,40.64,0,0,1-10.39,27.66q-10.39,11.82-24.24,11.83a32.5,32.5,0,0,1-16.91-4.77,34.43,34.43,0,0,1-12.6-12.95v15.65H642.7Zm63.06,79.33a23.62,23.62,0,0,0-7.29-17.4,24.09,24.09,0,0,0-17.63-7.25A24.68,24.68,0,0,0,663.53,968a24.8,24.8,0,0,0,18,7.16,23.06,23.06,0,0,0,17.05-7.29A24.06,24.06,0,0,0,705.76,950.43Z"/><path d="M744.08,871.1h15.65V987.85H744.08Z"/><path d="M856.42,953.76H793.1q2.05,11.41,9.4,16.68a26.77,26.77,0,0,0,16,5.27q13.31,0,22.31-11.07l11.42,8.64q-12.86,16.63-34.45,16.64-16.54,0-27.7-11.34t-11.16-28.15a37.81,37.81,0,0,1,11.29-27.3,38.28,38.28,0,0,1,55,.18Q856.6,935.06,856.42,953.76Zm-61.71-12.51h45.34Q832.49,926,817.74,926,801.65,926,794.71,941.25Z"/><path d="M936.65,871.1h15.47V987.85H936.83V972.38q-11.08,17.54-29,17.54-14.51,0-24.86-11.61t-10.36-27.88A39.09,39.09,0,0,1,883.15,923q10.53-11.46,25.13-11.47a29.6,29.6,0,0,1,16.3,4.86,36.55,36.55,0,0,1,12.07,12.68Zm1.8,79.51A25,25,0,0,0,913.76,926a24.28,24.28,0,0,0-17.71,7.16,24.9,24.9,0,0,0,17.35,42.22,24.32,24.32,0,0,0,17.75-7.19A23.68,23.68,0,0,0,938.45,950.61Z"/><path d="M973.35,977.32a11.74,11.74,0,0,1,3.55-8.54,12.13,12.13,0,1,1,8.59,20.69,12.05,12.05,0,0,1-12.14-12.15Z"/><path d="M3166.85,697.52V557.63h28.83v23.23q12.72-14.07,23.06-20.6a42.32,42.32,0,0,1,23.06-6.53q19,0,32.47,12.55t13.48,30.18V697.52h-29.5V605.11q0-11.36-7.38-18.82t-18.73-7.46q-14.76,0-25.44,12.46T3196,621.39v76.13Z"/><path d="M3319.29,557.63h29.5v78.85q0,36.45,32.05,36.45,14.25,0,22.55-9.75t8.31-26.7V557.63h29.17v83.6q0,26.28-17.13,43.23t-43.75,17q-27.12,0-43.91-17t-16.79-44.25Z"/><path d="M3473.76,697.52V557.63h29.17v21.54q10.34-13.23,19.75-19.33a38.83,38.83,0,0,1,21.62-6.11q15.93,0,25,6.95t15.35,22.22q11.06-15.27,21.36-22.22a41.75,41.75,0,0,1,23.92-6.95q16.68,0,28.77,12.46a41.1,41.1,0,0,1,12.08,29.59V697.52h-29.5V603.41q0-23.22-23-23.23-13.11,0-22.2,11.87t-9.1,29.34v76.13h-29.5V607.31q0-27.46-22.56-27.47-13.39,0-22.72,11.19t-9.32,27.64v78.85Z"/><path d="M3712.67,477.43h29.17V585.27q18.82-31.54,53.92-31.54,27.12,0,47,21.71T3862.74,627a76.5,76.5,0,0,1-19.59,52.14q-19.58,22.3-45.69,22.3a61.34,61.34,0,0,1-31.88-9A64.7,64.7,0,0,1,3741.84,668v29.5h-29.17ZM3831.54,627a44.6,44.6,0,0,0-13.74-32.81,45.39,45.39,0,0,0-33.23-13.65q-18.83,0-32.64,13.82T3738.11,627q0,19.68,13.82,33.15t34,13.48q18.66,0,32.14-13.73A45.34,45.34,0,0,0,3831.54,627Z"/><path d="M3903.77,477.43h29.5V697.52h-29.5Z"/><path d="M4115.55,633.26H3996.18q3.9,21.53,17.72,31.45a50.57,50.57,0,0,0,30.1,9.92q25.1,0,42.05-20.86l21.53,16.28q-24.24,31.37-64.94,31.37-31.2,0-52.22-21.37t-21-53.07q0-29.67,21.28-51.46t52-21.79q30.18,0,51.72,22.13T4115.55,633.26Zm-116.32-23.57h85.46q-14.24-28.83-42.05-28.83Q4012.3,580.86,3999.23,609.69Z"/><path d="M4266.8,477.43H4296V697.52h-28.83V668.35q-20.88,33.07-54.67,33.07-27.35,0-46.87-21.87T4146.08,627q0-30,19.86-51.63t47.38-21.62a55.79,55.79,0,0,1,30.73,9.16,68.65,68.65,0,0,1,22.75,23.91Zm3.39,149.89q0-18.83-13.76-32.64t-32.78-13.82q-19.71,0-33.38,13.48a44.52,44.52,0,0,0-13.67,33q0,18.66,13.92,32.64T4223,674q19.71,0,33.46-13.56A44.67,44.67,0,0,0,4270.19,627.32Z"/><path d="M4336,677.68a22.18,22.18,0,0,1,6.7-16.11,22.87,22.87,0,1,1,16.2,39,22.72,22.72,0,0,1-22.9-22.89Z"/></g><g id="Layer_2" data-name="Layer 2"><circle class="cls-2" cx="171" cy="286" r="142"/><path class="cls-1" d="M112.64,365a4.84,4.84,0,1,1-9.12-3.23L158.36,207a4.84,4.84,0,1,1,9.12,3.23Z"/><path class="cls-1" d="M183.64,365a4.84,4.84,0,1,1-9.12-3.23L229.36,207a4.84,4.84,0,1,1,9.12,3.23Z"/><path class="cls-1" d="M258,252.11a4.85,4.85,0,1,1,0,9.69H93.7a4.85,4.85,0,1,1,0-9.69Z"/><path class="cls-1" d="M248.3,308.59a4.84,4.84,0,1,1,0,9.68H84a4.84,4.84,0,1,1,0-9.68Z"/><circle class="cls-2" cx="1431" cy="286" r="220"/><rect class="cls-1" x="1241" y="278.5" width="270" height="15" rx="5" transform="translate(647.04 1487.58) rotate(-70.5)"/><rect class="cls-1" x="1351" y="278.5" width="270" height="15" rx="5" transform="translate(720.31 1591.26) rotate(-70.5)"/><rect class="cls-1" x="1303.5" y="233.5" width="270" height="15" rx="5"/><rect class="cls-1" x="1288.5" y="321" width="270" height="15" rx="5"/><circle class="cls-2" cx="2228.5" cy="610.5" r="282.5"/><rect class="cls-1" x="1984.52" y="600.87" width="346.7" height="19.26" rx="5" transform="translate(862 2440.76) rotate(-70.5)"/><rect class="cls-1" x="2125.77" y="600.87" width="346.7" height="19.26" rx="5" transform="translate(956.1 2573.9) rotate(-70.5)"/><rect class="cls-1" x="2064.78" y="543.09" width="346.7" height="19.26" rx="5"/><rect class="cls-1" x="2045.52" y="655.44" width="346.7" height="19.26" rx="5"/><circle class="cls-2" cx="2844.5" cy="610.5" r="282.5"/><rect class="cls-1" x="2600.52" y="600.87" width="346.7" height="19.26" rx="5" transform="translate(1272.35 3021.42) rotate(-70.5)"/><rect class="cls-1" x="2741.77" y="600.87" width="346.7" height="19.26" rx="5" transform="translate(1366.45 3154.56) rotate(-70.5)"/><rect class="cls-1" x="2680.78" y="543.09" width="346.7" height="19.26" rx="5"/><rect class="cls-1" x="2661.52" y="655.44" width="346.7" height="19.26" rx="5"/><circle class="cls-3" cx="155.5" cy="919.5" r="148.5"/><rect x="27.25" y="914.44" width="182.25" height="10.12" rx="5" transform="translate(-787.89 724.11) rotate(-70.5)"/><rect x="101.5" y="914.44" width="182.25" height="10.12" rx="5" transform="translate(-738.43 794.1) rotate(-70.5)"/><rect x="69.44" y="884.06" width="182.25" height="10.13" rx="5"/><rect x="59.31" y="943.13" width="182.25" height="10.13" rx="5"/><circle class="cls-3" cx="1443" cy="919" r="221"/><rect x="1252.14" y="911.47" width="271.23" height="15.07" rx="5" transform="translate(58.18 1920.33) rotate(-70.5)"/><rect x="1362.64" y="911.47" width="271.23" height="15.07" rx="5" transform="matrix(0.33, -0.94, 0.94, 0.33, 131.79, 2024.49)"/><rect x="1314.92" y="866.26" width="271.23" height="15.07" rx="5"/><rect x="1299.85" y="954.16" width="271.23" height="15.07" rx="5"/></g><g id="Layer_5" data-name="Layer 5"><rect y="1401" width="2463" height="907"/></g><g id="Layer_4" data-name="Layer 4"><circle class="cls-4" cx="471.9" cy="1859.7" r="392.1"/><rect class="cls-1" x="133.26" y="1846.33" width="481.22" height="26.73" rx="5" transform="translate(-1503.95 1591.26) rotate(-70.5)"/><rect class="cls-5" x="133.26" y="1846.33" width="481.22" height="26.73" rx="5" transform="translate(-1503.95 1591.26) rotate(-70.5)"/><rect class="cls-1" x="329.31" y="1846.33" width="481.22" height="26.73" rx="5" transform="translate(-1373.35 1776.07) rotate(-70.5)"/><rect class="cls-5" x="329.31" y="1846.33" width="481.22" height="26.73" rx="5" transform="translate(-1373.35 1776.07) rotate(-70.5)"/><rect class="cls-1" x="244.65" y="1766.13" width="481.22" height="26.73" rx="5"/><rect class="cls-5" x="244.65" y="1766.13" width="481.22" height="26.73" rx="5"/><rect class="cls-1" x="217.92" y="1922.08" width="481.22" height="26.73" rx="5"/><rect class="cls-5" x="217.92" y="1922.08" width="481.22" height="26.73" rx="5"/><path class="cls-1" d="M978.21,1942.18v-166h34.22v27.58q15.09-16.71,27.37-24.46a50.26,50.26,0,0,1,27.37-7.74q22.55,0,38.55,14.89t16,35.82v120h-35V1832.49q0-13.48-8.76-22.34t-22.24-8.86q-17.51,0-30.19,14.8t-12.68,35.72v90.37Z"/><path class="cls-1" d="M1159.15,1776.13h35v93.59q0,43.27,38,43.28,16.9,0,26.77-11.58t9.86-31.7v-93.59h34.62v99.23q0,31.2-20.33,51.32t-51.92,20.13q-32.2,0-52.13-20.13t-19.93-52.53Z"/><path class="cls-1" d="M1342.51,1942.18v-166h34.61v25.57q12.29-15.71,23.45-23a46.11,46.11,0,0,1,25.66-7.24q18.91,0,29.69,8.25t18.21,26.36q13.14-18.11,25.36-26.36t28.39-8.25q19.8,0,34.15,14.79a48.75,48.75,0,0,1,14.35,35.12v120.76h-35v-111.7q0-27.57-27.26-27.58-15.55,0-26.35,14.09t-10.8,34.82v90.37h-35V1835.11q0-32.61-26.77-32.61-15.9,0-27,13.28t-11.07,32.81v93.59Z"/><path class="cls-1" d="M1626.09,1680.94h34.62v128q22.33-37.44,64-37.43,32.19,0,55.85,25.76t23.65,61.18q0,35.43-23.25,61.89t-54.24,26.47a72.83,72.83,0,0,1-37.84-10.67,76.85,76.85,0,0,1-28.17-29v35h-34.62Zm141.08,177.51q0-22.74-16.3-38.94a53.91,53.91,0,0,0-39.45-16.2q-22.34,0-38.74,16.4t-16.4,38.74q0,23.35,16.4,39.35t40.35,16q22.14,0,38.14-16.3A53.76,53.76,0,0,0,1767.17,1858.45Z"/><path class="cls-1" d="M1852.91,1680.94h35v261.24h-35Z"/><path class="cls-1" d="M2104.29,1865.9H1962.6q4.64,25.56,21,37.33a60,60,0,0,0,35.72,11.78q29.79,0,49.91-24.76l25.56,19.32q-28.78,37.25-77.08,37.24-37,0-62-25.36t-25-63q0-35.22,25.26-61.08t61.69-25.86q35.82,0,61.39,26.26T2104.29,1865.9Zm-138.06-28h101.43q-16.9-34.22-49.91-34.21Q1981.72,1803.71,1966.23,1837.92Z"/><path class="cls-1" d="M2283.82,1680.94h34.62v261.24h-34.22v-34.62q-24.78,39.26-64.89,39.25-32.46,0-55.63-26t-23.18-62.39q0-35.62,23.58-61.28t56.24-25.66a66.28,66.28,0,0,1,36.47,10.86,81.67,81.67,0,0,1,27,28.38Zm4,177.91q0-22.33-16.34-38.74t-38.91-16.4q-23.38,0-39.62,16t-16.23,39.14q0,22.15,16.53,38.75t38.52,16.6q23.38,0,39.71-16.1T2287.85,1858.85Z"/><path class="cls-1" d="M2365.94,1918.63a27,27,0,1,1,7.95,19.32A26.29,26.29,0,0,1,2365.94,1918.63Z"/></g></svg>