<svg width="13476" height="4045" viewBox="0 0 13476 4045" fill="none" xmlns="http://www.w3.org/2000/svg">
<g id="typelogov2_onwhite">
<g id="typelogov2_onblack">
<g id="logov2_blackonblack">
<circle id="Ellipse 3" cx="2022.5" cy="2022.5" r="2022.5" fill="black"/>
<circle id="Ellipse 4" cx="2022.96" cy="2022.96" r="1885.83" fill="white"/>
<g id="Group 2">
<rect id="Rectangle 10" x="2750.36" y="809.474" width="146.251" height="2495.5" rx="39" transform="rotate(15 2750.36 809.474)" fill="black"/>
<rect id="Rectangle 14" x="3270.05" y="1549.89" width="146.338" height="2495.11" rx="39" transform="rotate(90 3270.05 1549.89)" fill="black"/>
<rect id="Rectangle 15" x="3270.05" y="2317.48" width="146.338" height="2495.11" rx="39" transform="rotate(90 3270.05 2317.48)" fill="black"/>
<rect id="Rectangle 13" x="1798.89" y="788.752" width="146.251" height="2495.5" rx="39" transform="rotate(15 1798.89 788.752)" fill="black"/>
</g>
</g>
<path id="numbled." d="M4698.38 1612.7L4704.82 1758.79C4793.63 1647.07 4909.64 1591.21 5052.87 1591.21C5298.51 1591.21 5422.4 1729.79 5424.55 2006.93V2775H5225.82V2005.86C5225.1 1922.07 5205.77 1860.12 5167.81 1820.02C5130.57 1779.92 5072.21 1759.86 4992.71 1759.86C4928.26 1759.86 4871.69 1777.05 4822.99 1811.43C4774.29 1845.8 4736.33 1890.92 4709.12 1946.78V2775H4510.39V1612.7H4698.38ZM6441.84 2660.06C6364.49 2751.01 6250.98 2796.48 6101.31 2796.48C5977.42 2796.48 5882.88 2760.68 5817.71 2689.06C5753.26 2616.73 5720.68 2510.03 5719.96 2368.95V1612.7H5918.69V2363.57C5918.69 2539.75 5990.31 2627.83 6133.54 2627.83C6285.36 2627.83 6386.33 2571.26 6436.46 2458.11V1612.7H6635.2V2775H6446.13L6441.84 2660.06ZM7125.04 1612.7L7130.41 1741.6C7215.63 1641.34 7330.57 1591.21 7475.23 1591.21C7637.8 1591.21 7748.44 1653.52 7807.17 1778.12C7845.84 1722.27 7895.97 1677.15 7957.56 1642.77C8019.86 1608.4 8093.27 1591.21 8177.77 1591.21C8432.72 1591.21 8562.34 1726.2 8566.64 1996.19V2775H8367.91V2008.01C8367.91 1924.93 8348.93 1862.99 8310.98 1822.17C8273.02 1780.63 8209.28 1759.86 8119.77 1759.86C8046 1759.86 7984.77 1782.06 7936.07 1826.46C7887.38 1870.15 7859.09 1929.23 7851.21 2003.71V2775H7651.41V2013.38C7651.41 1844.37 7568.69 1759.86 7403.26 1759.86C7272.92 1759.86 7183.76 1815.36 7135.78 1926.37V2775H6937.05V1612.7H7125.04ZM9851.41 2206.74C9851.41 2384.34 9810.59 2527.21 9728.95 2635.35C9647.3 2742.77 9537.73 2796.48 9400.23 2796.48C9253.42 2796.48 9139.92 2744.56 9059.71 2640.72L9050.04 2775H8867.42V1125H9066.15V1740.53C9146.36 1640.98 9257.01 1591.21 9398.09 1591.21C9539.17 1591.21 9649.81 1644.56 9730.02 1751.27C9810.94 1857.98 9851.41 2004.07 9851.41 2189.55V2206.74ZM9652.68 2184.18C9652.68 2048.83 9626.54 1944.27 9574.26 1870.51C9521.98 1796.74 9446.78 1759.86 9348.67 1759.86C9217.62 1759.86 9123.44 1820.74 9066.15 1942.48V2445.21C9127.02 2566.96 9221.91 2627.83 9350.82 2627.83C9446.07 2627.83 9520.19 2590.95 9573.18 2517.19C9626.18 2443.42 9652.68 2332.42 9652.68 2184.18ZM10318.7 2775H10120V1125H10318.7V2775ZM11120.1 2796.48C10962.5 2796.48 10834.3 2744.92 10735.5 2641.8C10636.7 2537.96 10587.2 2399.38 10587.2 2226.07V2189.55C10587.2 2074.25 10609.1 1971.48 10652.8 1881.25C10697.2 1790.3 10758.8 1719.4 10837.5 1668.55C10917 1616.99 11003 1591.21 11095.4 1591.21C11246.5 1591.21 11363.9 1640.98 11447.7 1740.53C11531.5 1840.07 11573.4 1982.58 11573.4 2168.07V2250.78H10786C10788.8 2365.36 10822.1 2458.11 10885.9 2529C10950.3 2599.19 11032 2634.28 11130.8 2634.28C11201 2634.28 11260.4 2619.95 11309.1 2591.31C11357.8 2562.66 11400.4 2524.71 11437 2477.44L11558.3 2571.97C11460.9 2721.65 11314.9 2796.48 11120.1 2796.48ZM11095.4 1754.49C11015.1 1754.49 10947.8 1783.85 10893.4 1842.58C10839 1900.59 10805.3 1982.23 10792.4 2087.5H11374.6V2072.46C11368.9 1971.48 11341.7 1893.42 11293 1838.28C11244.3 1782.42 11178.4 1754.49 11095.4 1754.49ZM11756 2184.18C11756 2005.86 11798.2 1862.63 11882.8 1754.49C11967.3 1645.64 12077.9 1591.21 12214.7 1591.21C12350.8 1591.21 12458.5 1637.76 12538 1730.86V1125H12736.8V2775H12554.1L12544.5 2650.39C12465 2747.79 12354.3 2796.48 12212.5 2796.48C12077.9 2796.48 11968 2741.34 11882.8 2631.05C11798.2 2520.77 11756 2376.82 11756 2199.22V2184.18ZM11954.7 2206.74C11954.7 2338.51 11981.9 2441.63 12036.4 2516.11C12090.8 2590.59 12166 2627.83 12262 2627.83C12388 2627.83 12480 2571.26 12538 2458.11V1924.22C12478.6 1814.65 12387.3 1759.86 12264.1 1759.86C12166.7 1759.86 12090.8 1797.46 12036.4 1872.66C11981.9 1947.85 11954.7 2059.21 11954.7 2206.74ZM13050.4 2670.8C13050.4 2636.43 13060.5 2607.78 13080.5 2584.86C13101.3 2561.95 13132.1 2550.49 13172.9 2550.49C13213.7 2550.49 13244.5 2561.95 13265.3 2584.86C13286.8 2607.78 13297.5 2636.43 13297.5 2670.8C13297.5 2703.74 13286.8 2731.32 13265.3 2753.52C13244.5 2775.72 13213.7 2786.82 13172.9 2786.82C13132.1 2786.82 13101.3 2775.72 13080.5 2753.52C13060.5 2731.32 13050.4 2703.74 13050.4 2670.8Z" fill="black"/>
</g>
</g>
</svg>
